<?xml version="1.0" standalone="no"?>
<!DOCTYPE svg PUBLIC "-//W3C//DTD SVG 20010904//EN"
 "http://www.w3.org/TR/2001/REC-SVG-20010904/DTD/svg10.dtd">
<svg version="1.0" xmlns="http://www.w3.org/2000/svg"
 width="300.000000pt" height="298.000000pt" viewBox="0 0 300.000000 298.000000"
 preserveAspectRatio="xMidYMid meet">
<metadata>
Created by potrace 1.10, written by Peter Selinger 2001-2011
</metadata>
<g transform="translate(0.000000,298.000000) scale(0.100000,-0.100000)"
fill="#000000" stroke="none">
<path d="M180 2813 c-31 -11 -50 -37 -50 -67 1 -71 19 -76 284 -76 205 0 225
-2 230 -17 26 -92 317 -1215 314 -1216 -1 -1 -29 -15 -60 -31 -67 -33 -116
-83 -155 -158 -25 -47 -28 -63 -28 -148 0 -84 3 -102 28 -151 33 -69 99 -132
175 -167 l57 -27 760 -3 c418 -1 770 0 782 3 57 14 73 88 27 124 -26 21 -33
21 -778 21 l-752 0 -50 25 c-61 31 -95 79 -102 145 -7 71 5 116 41 157 67 76
33 73 768 73 611 0 658 1 678 18 16 13 48 129 159 573 125 502 138 560 127
586 -14 34 -32 43 -80 43 -31 0 -35 -3 -44 -37 -5 -21 -47 -191 -92 -378 -45
-187 -85 -345 -90 -350 -4 -6 -24 -77 -45 -158 l-36 -147 -569 0 -568 0 -15
53 c-8 28 -24 86 -35 127 -10 41 -55 210 -99 375 -43 165 -103 390 -131 500
-71 274 -77 290 -107 304 -26 11 -513 15 -544 4z"/>
<path d="M1103 600 c-210 -105 -202 -396 12 -491 245 -109 482 182 328 403
-77 112 -219 149 -340 88z m202 -153 c61 -61 53 -154 -17 -197 -127 -77 -260
95 -152 196 31 29 42 34 86 34 43 0 54 -4 83 -33z"/>
<path d="M2050 621 c-124 -38 -211 -168 -197 -292 17 -141 130 -242 274 -242
153 0 267 117 266 275 0 77 -23 130 -81 191 -60 62 -179 93 -262 68z m156
-174 c112 -102 -21 -279 -147 -194 -107 72 -61 227 69 227 34 0 49 -6 78 -33z"/>
</g>
</svg>
