<?xml version="1.0" standalone="no"?>
<!DOCTYPE svg PUBLIC "-//W3C//DTD SVG 20010904//EN"
 "http://www.w3.org/TR/2001/REC-SVG-20010904/DTD/svg10.dtd">
<svg version="1.0" xmlns="http://www.w3.org/2000/svg"
 width="898.000000pt" height="1059.000000pt" viewBox="0 0 898.000000 1059.000000"
 preserveAspectRatio="xMidYMid meet">

<g transform="translate(0.000000,1059.000000) scale(0.100000,-0.100000)"
fill="#000000" stroke="none">
<path d="M4815 10130 c-208 -44 -412 -151 -597 -312 -81 -70 -166 -157 -214
-217 -10 -13 -44 -54 -74 -90 -60 -72 -69 -84 -154 -211 -67 -99 -182 -290
-190 -317 -4 -13 43 -68 182 -212 l188 -194 232 232 c128 127 248 243 268 256
44 30 116 34 154 9 14 -9 134 -125 267 -258 l243 -241 162 161 c211 209 321
313 355 336 19 12 47 18 82 18 l55 0 253 -252 c139 -139 255 -253 257 -253 11
0 196 185 196 196 0 27 -135 278 -234 434 -272 431 -514 672 -834 827 -139 68
-234 89 -407 93 -82 2 -168 0 -190 -5z"/>
<path d="M4310 8515 c-124 -124 -242 -239 -263 -256 -49 -41 -101 -48 -153
-21 -32 16 -386 370 -431 431 -17 23 -26 10 -66 -89 -19 -47 -44 -107 -55
-135 -26 -62 -103 -304 -132 -410 -12 -44 -26 -96 -32 -115 -5 -19 -25 -105
-43 -190 -18 -85 -36 -167 -40 -182 -8 -32 1 -36 24 -10 9 9 35 34 59 55 38
34 47 37 100 37 33 0 66 -6 78 -14 22 -16 431 -427 489 -491 l36 -41 257 256
c142 140 269 263 284 273 18 11 47 17 81 17 44 0 61 -5 93 -29 21 -16 149
-140 283 -276 l243 -247 262 260 c143 142 272 267 286 276 35 23 124 21 164
-4 18 -10 54 -43 80 -72 26 -29 138 -144 247 -256 l200 -202 240 237 c132 131
245 241 251 245 14 8 -21 189 -76 400 -46 180 -156 508 -169 508 -6 0 -63 -51
-127 -114 -87 -85 -127 -117 -157 -126 -78 -24 -94 -12 -362 257 -134 134
-248 245 -251 246 -4 1 -120 -109 -257 -244 -265 -262 -287 -278 -361 -264
-32 6 -75 44 -292 261 -141 140 -258 254 -260 254 -3 0 -106 -102 -230 -225z"/>
<path d="M471 8428 c-55 -12 -92 -39 -128 -92 -24 -36 -28 -51 -28 -116 0 -65
4 -80 27 -115 15 -22 49 -53 75 -70 l48 -30 687 -3 687 -3 11 -42 c6 -23 15
-55 20 -72 5 -16 30 -111 56 -210 25 -99 61 -238 80 -310 52 -196 113 -429
139 -530 44 -167 84 -320 105 -400 52 -194 62 -232 70 -265 10 -44 76 -292
125 -475 33 -121 57 -211 66 -250 16 -64 27 -107 39 -150 6 -22 15 -56 20 -75
7 -33 32 -124 96 -360 14 -52 30 -111 34 -130 5 -19 14 -53 20 -75 11 -40 22
-81 39 -152 5 -21 16 -64 25 -96 25 -91 24 -93 -41 -112 -70 -20 -183 -79
-267 -139 -175 -125 -318 -324 -385 -538 -59 -187 -59 -410 0 -598 125 -396
457 -674 872 -730 112 -15 4437 -14 4492 1 53 15 102 50 132 94 22 32 26 49
26 115 1 73 -1 80 -34 125 -19 27 -52 57 -74 69 l-40 21 -2245 5 -2245 5 -61
22 c-213 75 -330 191 -403 400 -32 89 -30 261 2 353 40 114 76 172 152 245 81
77 157 121 275 158 25 8 614 13 1985 17 1832 5 1952 6 1982 22 43 24 87 72
101 112 9 25 313 1220 353 1389 5 20 14 55 19 77 6 22 15 58 20 80 6 22 14 57
20 78 5 20 14 57 19 82 6 25 17 72 26 105 28 101 326 1287 335 1330 5 22 16
58 25 80 23 54 15 134 -19 186 -56 84 -179 121 -270 81 -25 -12 -46 -25 -46
-30 0 -6 -10 -13 -22 -16 -15 -4 -30 -22 -44 -53 -21 -46 -105 -366 -194 -733
-23 -96 -46 -179 -50 -185 -4 -5 -126 -471 -270 -1035 -143 -564 -268 -1049
-276 -1077 l-15 -53 -1672 0 -1673 0 -158 578 c-87 317 -167 597 -178 621 -11
24 -37 109 -57 190 -61 232 -118 449 -141 536 -24 89 -74 279 -144 550 -26 99
-51 194 -56 210 -5 17 -11 47 -15 69 -7 48 -88 355 -120 456 -25 79 -41 135
-106 390 -87 335 -98 368 -144 415 -64 64 -12 60 -865 62 -486 1 -791 -3 -819
-9z"/>
<path d="M3157 7162 l-118 -118 -10 -100 c-18 -168 0 -453 42 -669 18 -90 29
-114 53 -115 4 0 58 -51 118 -112 61 -62 186 -190 278 -283 l168 -171 274 271
c150 149 285 278 300 288 18 11 48 17 84 17 l58 0 293 -292 c161 -160 295
-290 297 -287 3 2 103 101 223 219 120 119 253 248 296 288 l77 72 58 0 c38 0
66 -6 84 -18 15 -10 148 -141 296 -292 l269 -274 280 277 280 277 26 138 c45
242 52 315 51 562 -1 129 -6 265 -10 303 l-9 67 -229 -222 c-125 -123 -245
-233 -266 -246 -35 -21 -42 -22 -86 -11 -45 11 -69 31 -316 277 -146 145 -271
263 -276 261 -6 -2 -126 -116 -268 -254 -141 -137 -268 -258 -283 -267 -33
-23 -97 -23 -138 0 -18 9 -147 131 -286 270 -139 138 -260 252 -267 252 -8 0
-134 -119 -280 -264 -286 -285 -289 -288 -377 -271 -31 5 -60 29 -162 133
-352 359 -404 412 -405 412 -1 0 -54 -53 -119 -118z"/>
<path d="M5385 5563 c-330 -324 -333 -327 -394 -327 -34 0 -56 6 -76 22 -16
12 -149 142 -297 287 -148 146 -274 265 -281 265 -6 0 -137 -126 -292 -279
-307 -306 -317 -313 -400 -290 -32 9 -68 40 -184 160 -79 82 -146 147 -148
145 -5 -5 56 -118 105 -196 102 -161 242 -322 385 -441 174 -146 436 -277 662
-332 154 -37 218 -47 375 -56 351 -19 684 39 950 166 183 88 399 246 512 376
116 133 268 343 268 370 0 5 -44 -33 -99 -86 -110 -107 -146 -125 -216 -106
-34 9 -84 55 -321 295 -155 156 -283 284 -285 284 -2 -1 -121 -116 -264 -257z"/>
<path d="M3405 1906 c-138 -37 -275 -105 -357 -179 -205 -185 -315 -467 -278
-714 48 -326 252 -570 565 -679 74 -25 92 -28 235 -28 124 -1 168 3 220 18
214 62 407 217 504 404 75 146 109 318 90 467 -26 204 -92 342 -234 485 -106
107 -188 158 -331 206 -73 24 -102 28 -224 30 -92 2 -157 -2 -190 -10z m340
-458 c149 -76 240 -259 205 -409 -32 -135 -129 -246 -250 -286 -183 -60 -388
28 -466 201 -66 143 -35 306 77 416 31 30 78 66 104 79 90 45 241 44 330 -1z"/>
<path d="M6135 1914 c-202 -50 -310 -108 -432 -230 -141 -141 -210 -282 -235
-477 -12 -98 -2 -250 21 -309 5 -13 15 -43 22 -68 17 -56 80 -170 127 -230 97
-121 268 -233 417 -273 134 -36 316 -37 427 -2 26 8 52 15 59 15 6 0 50 19 97
43 192 96 352 281 407 472 9 33 21 71 27 85 5 13 10 90 10 170 0 80 -5 157
-10 170 -6 14 -18 52 -27 85 -51 180 -218 377 -395 465 -130 65 -201 83 -355
86 -77 1 -149 1 -160 -2z m280 -455 c74 -28 157 -106 197 -186 30 -61 32 -73
32 -167 0 -90 -3 -107 -28 -156 -116 -231 -412 -289 -595 -116 -87 82 -122
163 -122 276 1 144 78 271 206 337 84 43 212 48 310 12z"/>
</g>
</svg>
