<svg id="svg" xmlns="http://www.w3.org/2000/svg" xmlns:xlink="http://www.w3.org/1999/xlink" width="400" height="430.34482758620686" viewBox="0, 0, 400,430.34482758620686"><g id="svgg"><path id="path0" d="M199.338 29.360 C 199.034 33.339,197.903 36.567,195.905 39.156 C 194.282 41.260,193.008 43.853,192.532 46.020 L 192.255 47.280 191.270 46.109 C 190.180 44.814,187.225 43.744,184.736 43.744 C 178.571 43.744,176.087 52.292,182.022 53.088 C 183.662 53.308,183.665 53.306,183.273 52.273 C 181.886 48.626,187.186 48.941,188.805 52.603 C 189.556 54.299,190.657 60.903,190.256 61.304 C 190.148 61.412,189.458 60.939,188.724 60.252 C 184.165 55.984,178.798 55.002,173.307 57.428 C 168.157 59.704,164.841 65.805,166.753 69.484 C 167.399 70.728,167.412 70.732,168.216 70.005 C 168.922 69.366,168.959 69.431,169.199 71.725 C 169.618 75.738,170.804 77.241,173.547 77.241 C 175.106 77.241,175.775 76.635,174.620 76.268 C 174.201 76.136,173.667 75.476,173.432 74.802 C 172.708 72.725,172.951 72.250,173.971 73.750 C 175.452 75.930,177.371 76.325,178.848 74.753 C 179.925 73.606,179.939 73.173,178.888 73.507 C 176.371 74.306,175.721 69.716,178.094 67.894 C 179.643 66.705,184.332 67.605,186.338 69.477 C 188.664 71.646,189.785 76.565,188.776 80.169 C 186.914 86.821,176.783 87.483,177.461 80.908 L 177.677 78.818 176.182 78.818 C 174.551 78.818,172.818 79.909,172.411 81.193 C 172.275 81.620,171.854 81.970,171.476 81.970 C 170.186 81.970,168.670 84.027,168.670 85.776 C 168.670 89.643,172.222 92.020,178.002 92.020 L 181.642 92.020 180.358 92.678 C 169.409 98.296,156.413 91.557,156.290 80.197 C 156.237 75.234,157.737 73.799,162.574 74.187 C 165.398 74.414,165.607 74.197,164.545 72.143 C 164.190 71.456,163.307 70.752,162.259 70.318 L 160.551 69.612 161.261 68.220 C 164.231 62.395,159.431 60.288,154.384 65.200 L 152.906 66.639 152.906 65.438 C 152.906 64.343,151.771 62.659,151.034 62.661 C 150.692 62.662,148.538 65.820,147.622 67.665 C 145.903 71.125,145.351 77.395,146.381 81.770 C 147.153 85.055,146.881 84.913,145.492 81.308 C 143.082 75.048,142.613 70.818,143.809 66.140 C 146.934 53.921,152.579 50.239,158.118 56.808 C 159.680 58.661,159.760 58.702,160.499 58.033 C 162.164 56.527,162.966 53.591,162.391 51.111 C 162.094 49.829,162.136 49.629,162.683 49.735 C 163.691 49.929,165.060 52.298,165.330 54.315 C 165.719 57.231,165.804 57.362,166.749 56.507 C 170.190 53.393,170.527 48.923,167.511 46.386 C 166.116 45.212,166.429 45.032,168.419 45.864 C 169.882 46.475,171.217 48.000,172.083 50.049 L 172.667 51.429 173.620 50.246 C 177.820 45.036,175.582 37.887,169.631 37.508 C 167.350 37.363,167.093 37.264,167.279 36.604 C 167.394 36.196,167.581 35.531,167.695 35.126 C 168.122 33.609,167.177 32.310,164.882 31.259 C 156.865 27.589,147.288 34.817,138.418 51.232 C 131.040 64.886,132.793 79.014,142.925 87.546 C 163.828 105.149,191.305 101.646,197.962 80.530 L 198.883 77.611 199.597 79.972 C 206.342 102.247,236.192 105.653,256.871 86.508 C 263.588 80.290,265.868 68.485,262.347 58.162 C 258.592 47.151,250.173 35.451,243.721 32.275 C 237.058 28.995,229.095 32.131,231.704 37.007 C 232.043 37.640,231.864 37.705,229.832 37.691 C 223.341 37.644,220.849 44.714,225.178 50.895 C 225.735 51.690,225.785 51.655,226.729 49.799 C 227.940 47.421,229.223 46.195,230.839 45.872 L 232.083 45.623 230.524 47.261 C 228.499 49.391,228.377 51.572,230.114 54.601 C 231.952 57.805,232.360 57.942,232.878 55.529 C 233.448 52.871,234.393 50.913,235.356 50.398 C 236.399 49.840,236.469 50.000,236.033 51.940 C 235.563 54.033,236.148 56.568,237.469 58.159 L 238.425 59.310 239.705 57.867 C 245.557 51.268,250.649 54.062,253.817 65.610 C 255.319 71.085,254.843 75.306,251.917 82.459 C 250.243 86.553,250.087 86.642,251.054 82.956 C 252.743 76.514,251.368 68.721,247.727 64.107 C 246.719 62.830,245.123 64.217,245.123 66.369 C 245.123 67.172,244.966 67.104,243.429 65.631 C 238.454 60.864,233.689 63.033,236.653 68.715 C 236.976 69.336,237.241 69.893,237.241 69.953 C 237.241 70.013,236.576 70.328,235.764 70.654 C 231.692 72.284,231.674 74.555,235.732 74.626 C 241.306 74.725,242.957 78.722,240.334 85.772 C 237.429 93.582,225.837 97.080,217.340 92.710 L 215.764 91.899 218.354 92.106 C 224.543 92.601,229.343 89.225,228.659 84.858 C 228.492 83.793,226.716 81.970,225.845 81.970 C 225.486 81.970,224.997 81.440,224.749 80.781 C 224.294 79.576,222.330 78.424,220.732 78.424 C 220.044 78.424,219.969 78.681,220.030 80.820 C 220.127 84.201,218.933 85.279,215.347 85.050 C 206.083 84.461,206.046 69.441,215.303 67.370 C 218.973 66.548,221.084 67.694,221.084 70.510 C 221.084 72.857,220.788 73.300,219.220 73.300 C 217.873 73.300,217.851 73.325,218.421 74.187 C 219.792 76.263,222.391 75.984,223.842 73.604 C 224.520 72.492,224.628 72.433,224.629 73.176 C 224.632 74.634,223.897 76.064,222.961 76.423 C 222.079 76.762,222.082 76.771,223.205 77.211 C 226.006 78.308,228.038 76.191,228.780 71.403 C 229.027 69.811,229.088 69.742,229.736 70.329 C 231.381 71.817,232.373 67.232,231.118 63.945 C 227.985 55.742,216.572 53.517,209.643 59.758 L 207.951 61.281 208.201 58.325 C 208.674 52.705,210.565 49.498,213.404 49.498 C 215.299 49.498,215.858 50.130,215.291 51.631 L 214.847 52.808 216.407 52.808 C 221.251 52.808,220.998 45.938,216.078 43.882 C 213.485 42.799,209.313 43.664,207.534 45.654 C 206.572 46.729,206.238 46.478,205.905 44.431 C 205.641 42.811,204.330 40.256,202.329 37.463 C 201.107 35.758,200.182 32.610,199.843 29.003 L 199.579 26.207 199.338 29.360 M130.162 42.202 C 126.762 43.885,125.168 47.879,125.143 54.778 C 125.121 61.107,125.616 62.189,126.523 57.788 C 127.867 51.259,131.820 45.871,136.841 43.725 C 139.504 42.586,139.605 42.341,137.635 41.794 C 135.192 41.116,132.006 41.289,130.162 42.202 M259.704 42.245 L 258.325 42.645 260.805 43.822 C 266.317 46.438,269.970 51.402,271.479 58.325 L 272.209 61.675 272.508 59.777 C 274.505 47.098,268.993 39.550,259.704 42.245 M112.364 59.735 C 95.776 64.197,84.831 86.021,81.350 121.576 C 79.171 143.836,85.595 165.163,99.149 180.667 C 102.883 184.938,102.666 184.886,103.679 181.740 L 104.551 179.032 102.277 176.351 C 91.705 163.888,86.959 149.607,86.431 128.670 C 85.765 102.219,93.160 82.240,109.790 65.561 C 116.623 58.709,116.683 58.573,112.364 59.735 M281.773 59.730 C 281.773 59.852,282.350 60.425,283.054 61.004 C 306.120 79.937,315.880 110.683,309.912 145.616 C 307.886 157.476,303.489 166.985,295.469 176.853 L 293.142 179.716 294.005 182.310 L 294.868 184.904 296.630 183.191 C 310.193 170.008,318.352 146.615,316.817 125.320 C 314.388 91.642,304.827 69.258,289.607 61.614 C 286.624 60.116,281.773 58.949,281.773 59.730 M87.890 66.478 C 85.188 67.885,83.900 71.218,83.988 76.571 C 84.067 81.383,84.454 82.279,85.056 79.041 C 86.023 73.833,89.034 69.583,93.137 67.633 C 95.435 66.540,95.129 66.183,91.683 65.936 C 89.855 65.806,88.925 65.938,87.890 66.478 M114.713 67.190 C 92.218 77.857,81.397 121.599,92.839 155.608 C 95.715 164.156,98.013 167.954,95.938 160.730 C 89.913 139.757,89.687 121.823,95.268 107.586 C 102.856 88.227,112.683 79.538,122.661 83.367 C 124.221 83.965,124.611 79.046,123.142 77.300 C 119.220 72.639,110.726 74.948,105.165 82.187 C 102.405 85.779,101.875 86.327,102.896 84.532 C 110.040 71.976,119.897 68.208,127.005 75.316 C 128.299 76.611,129.469 77.559,129.605 77.423 C 130.322 76.707,129.837 70.717,128.963 69.492 C 126.702 66.322,119.124 65.098,114.713 67.190 M274.760 66.624 C 269.467 67.562,266.970 70.996,267.994 75.930 L 268.447 78.112 270.283 76.147 C 277.591 68.321,288.274 72.327,295.554 85.623 C 296.674 87.668,296.364 87.349,293.439 83.449 C 288.197 76.460,282.106 73.692,276.966 75.966 C 274.006 77.275,273.019 79.699,274.242 82.654 L 274.751 83.881 276.341 83.320 C 285.450 80.106,295.680 89.729,302.823 108.232 C 307.941 121.491,307.801 142.314,302.480 159.221 C 301.967 160.852,301.436 162.891,301.301 163.753 L 301.054 165.320 302.205 163.153 C 310.603 147.343,311.978 114.423,305.015 95.886 C 297.597 76.137,285.748 64.678,274.760 66.624 M303.744 66.479 C 302.682 66.756,302.919 67.182,304.442 67.733 C 308.290 69.124,312.313 74.762,312.796 79.439 C 313.123 82.609,313.576 82.390,313.879 78.914 C 314.710 69.390,310.829 64.627,303.744 66.479 M64.775 81.544 C 62.381 83.004,61.195 85.854,61.822 88.643 L 62.182 90.246 60.629 90.246 C 55.158 90.246,54.830 99.981,60.189 103.312 L 61.675 104.236 59.681 104.437 C 53.286 105.082,54.555 110.246,61.270 110.903 C 63.393 111.111,65.205 112.072,66.336 113.590 C 67.352 114.952,67.017 115.309,65.475 114.512 C 62.879 113.169,60.675 114.146,60.554 116.694 C 60.495 117.914,60.605 118.015,62.974 118.929 C 66.063 120.120,67.005 121.295,66.046 122.759 C 63.862 126.093,57.977 121.100,58.499 116.355 C 58.751 114.062,57.951 113.567,56.095 114.866 C 55.315 115.412,55.253 115.377,55.031 114.267 C 54.716 112.694,51.727 109.557,49.267 108.219 L 47.283 107.139 46.105 108.317 C 44.836 109.586,44.534 111.626,45.312 113.672 C 45.693 114.674,45.679 114.683,44.170 114.442 C 42.127 114.116,40.221 114.802,38.641 116.432 L 37.339 117.776 38.197 119.164 C 39.107 120.636,40.903 121.938,42.612 122.364 L 43.647 122.623 42.710 123.559 C 41.671 124.599,41.465 126.576,42.222 128.239 L 42.671 129.224 44.299 128.104 C 48.781 125.020,54.012 125.520,58.072 129.421 C 63.910 135.031,70.115 134.969,72.633 129.277 C 74.550 124.943,74.164 116.230,71.855 111.741 C 67.521 103.313,66.727 96.063,69.598 91.135 C 71.767 87.412,75.871 87.403,77.371 91.118 C 78.017 92.719,79.031 88.707,78.640 86.098 C 78.192 83.111,77.037 82.167,73.826 82.167 C 71.895 82.167,70.857 81.972,70.159 81.478 C 68.876 80.570,66.321 80.602,64.775 81.544 M327.446 81.925 C 326.706 82.524,326.098 82.629,324.315 82.468 C 320.679 82.138,319.212 83.686,319.212 87.851 C 319.212 91.298,320.201 92.645,321.182 90.533 C 322.481 87.739,325.948 87.958,328.030 90.965 C 331.219 95.574,330.511 103.327,326.120 111.862 C 325.117 113.812,324.653 115.389,324.307 118.024 C 322.400 132.552,330.052 138.626,339.432 130.031 C 343.909 125.929,349.388 125.244,353.492 128.272 C 355.151 129.496,355.235 129.495,355.799 128.257 C 356.482 126.758,356.353 125.156,355.458 124.017 L 354.659 123.002 356.357 122.251 C 358.222 121.425,360.197 119.362,360.197 118.237 C 360.197 116.353,356.117 114.294,353.442 114.829 C 352.446 115.028,352.274 114.961,352.472 114.447 C 354.115 110.164,352.001 106.725,348.746 108.386 C 346.484 109.540,343.465 112.640,342.882 114.407 C 342.457 115.695,342.337 115.792,341.814 115.269 C 340.321 113.776,339.310 114.500,339.310 117.064 C 339.310 121.627,334.700 125.794,332.178 123.511 C 330.569 122.056,332.116 119.981,335.521 119.028 C 337.190 118.560,337.340 118.416,337.340 117.278 C 337.340 114.545,334.980 113.448,332.197 114.887 C 330.583 115.722,330.605 114.776,332.237 113.143 C 333.399 111.982,334.066 111.722,338.325 110.768 C 340.369 110.311,343.075 108.052,342.754 107.072 C 342.485 106.254,340.141 104.904,338.510 104.628 L 336.939 104.363 338.886 102.612 C 343.184 98.748,342.094 90.664,337.258 90.527 L 335.943 90.489 336.071 87.905 C 336.327 82.752,330.992 79.054,327.446 81.925 M121.077 87.148 C 104.406 89.837,91.690 119.642,95.569 146.934 C 97.308 159.169,102.746 175.135,105.485 176.048 C 106.456 176.372,107.736 171.767,107.198 169.886 C 106.914 168.892,106.598 165.722,106.496 162.841 L 106.312 157.603 107.550 155.089 C 109.896 150.323,115.156 146.717,122.365 144.934 C 124.315 144.451,125.951 144.042,125.999 144.026 C 126.047 144.009,125.896 143.304,125.663 142.459 C 124.734 139.093,121.374 137.373,118.664 138.875 C 117.843 139.330,117.628 139.303,116.989 138.664 C 116.133 137.808,114.882 137.734,113.498 138.458 C 112.818 138.814,112.247 138.858,111.656 138.600 C 108.299 137.135,105.128 141.105,102.432 150.148 L 101.668 152.709 101.898 148.768 C 102.300 141.883,104.398 137.090,108.318 134.100 C 110.415 132.500,111.999 132.392,112.643 133.805 C 113.073 134.748,113.156 134.771,114.185 134.239 C 116.713 132.932,117.472 131.036,116.278 129.013 L 115.450 127.609 116.758 128.418 C 120.103 130.485,122.723 129.885,122.312 127.146 C 121.664 122.830,118.931 121.239,115.129 122.964 C 114.185 123.393,113.355 123.744,113.285 123.744 C 113.215 123.744,113.323 123.169,113.525 122.466 C 113.727 121.763,113.892 121.119,113.892 121.034 C 113.892 120.950,113.169 120.978,112.286 121.097 C 109.232 121.506,106.347 124.313,102.887 130.240 C 100.926 133.600,100.906 133.464,102.673 128.833 C 105.936 120.282,108.732 116.790,112.003 117.178 C 113.895 117.402,113.967 117.375,113.742 116.538 C 113.614 116.058,113.506 115.523,113.503 115.350 C 113.500 115.177,112.921 114.785,112.217 114.479 L 110.936 113.922 112.426 113.907 C 113.246 113.899,114.529 114.147,115.277 114.460 C 116.557 114.995,116.673 114.978,117.235 114.175 C 118.622 112.195,117.824 110.614,114.740 109.233 L 113.041 108.473 114.217 107.635 C 114.863 107.175,115.587 106.798,115.824 106.798 C 116.570 106.798,116.296 106.099,115.218 105.250 C 112.898 103.425,109.598 104.731,105.126 109.244 L 102.075 112.323 103.079 110.053 C 108.782 97.146,119.711 89.331,127.133 92.853 C 128.757 93.624,128.753 93.567,127.291 95.233 C 123.966 99.019,128.594 103.640,132.842 100.776 C 134.588 99.600,135.160 98.388,135.167 95.846 C 135.183 89.840,128.805 85.902,121.077 87.148 M270.874 87.504 C 263.389 88.985,259.674 97.614,265.015 101.114 C 269.711 104.191,273.979 99.190,270.197 95.042 C 269.367 94.132,269.366 94.119,270.136 93.556 C 275.120 89.911,284.916 94.432,290.717 103.054 C 292.138 105.166,295.567 111.573,295.567 112.116 C 295.567 112.233,294.262 111.023,292.667 109.428 C 288.444 105.205,285.149 103.889,282.745 105.464 C 281.456 106.309,281.532 106.867,283.038 107.609 C 284.834 108.494,284.753 108.859,282.547 109.829 C 279.645 111.105,279.050 115.088,281.810 114.766 C 285.831 114.297,287.220 114.247,287.417 114.565 C 287.544 114.771,287.155 114.860,286.530 114.768 C 285.699 114.646,285.256 114.836,284.778 115.518 C 283.581 117.226,283.908 117.739,286.063 117.532 C 289.178 117.233,291.800 120.431,294.870 128.276 C 296.942 133.569,296.988 134.130,295.066 130.672 C 292.036 125.218,288.047 121.384,285.401 121.381 C 284.130 121.379,284.108 121.409,284.361 122.759 L 284.620 124.139 282.901 123.359 C 279.699 121.906,277.471 122.598,276.109 125.468 C 274.179 129.536,276.782 131.325,280.926 128.777 L 282.246 127.966 281.616 129.185 C 280.679 130.997,280.838 131.951,282.325 133.438 C 283.853 134.966,284.713 135.124,285.320 133.990 C 285.933 132.846,287.678 132.997,289.555 134.357 C 293.583 137.275,295.648 142.232,296.133 150.148 L 296.362 153.892 295.595 151.062 C 293.284 142.539,290.562 138.630,287.018 138.747 C 285.759 138.789,284.060 138.687,283.242 138.521 C 282.071 138.283,281.590 138.369,280.975 138.926 C 280.325 139.513,280.025 139.556,279.192 139.176 C 276.499 137.949,273.903 138.926,272.675 141.629 C 271.478 144.266,271.556 144.376,275.172 145.120 C 281.694 146.462,288.029 150.667,290.493 155.289 C 291.733 157.615,291.859 166.204,290.710 170.049 L 290.003 172.414 291.044 174.765 L 292.085 177.116 292.854 176.144 C 296.900 171.034,301.359 156.604,302.700 144.278 C 305.995 113.998,289.120 83.894,270.874 87.504 M197.351 96.070 C 196.211 96.762,195.266 98.655,194.877 101.029 L 194.628 102.551 193.742 101.719 C 192.669 100.711,190.144 100.598,188.856 101.500 C 187.733 102.287,187.753 102.627,188.951 103.173 C 190.320 103.797,191.849 107.058,192.633 111.026 L 193.300 114.404 198.621 114.378 L 203.941 114.352 204.245 111.945 C 204.702 108.336,205.992 105.244,207.745 103.559 L 209.269 102.093 208.102 101.490 C 206.348 100.583,204.272 100.716,203.182 101.807 L 202.262 102.727 202.039 100.843 C 201.584 97.007,199.427 94.810,197.351 96.070 M143.054 102.962 C 143.054 108.258,139.726 112.571,134.743 113.733 C 122.067 116.690,122.144 126.306,134.895 132.835 L 138.215 134.535 141.409 132.391 C 144.910 130.041,145.100 129.788,143.645 129.423 C 142.391 129.108,142.398 129.073,143.994 127.672 C 146.034 125.881,145.974 123.308,143.866 122.180 C 142.957 121.694,142.841 121.742,140.364 123.628 C 137.655 125.691,134.737 124.914,136.017 122.471 C 137.617 119.416,142.840 118.994,145.897 121.672 C 146.905 122.555,147.783 122.012,147.784 120.505 L 147.784 119.212 150.838 119.200 C 158.496 119.169,161.902 113.863,155.681 111.653 C 153.736 110.963,153.727 110.952,154.470 110.159 C 156.908 107.555,156.492 102.463,153.840 102.463 C 152.210 102.463,149.887 103.383,148.699 104.499 L 147.830 105.315 147.494 104.017 C 147.127 102.601,145.834 101.462,144.138 101.059 C 143.056 100.802,143.054 100.805,143.054 102.962 M252.404 101.831 C 251.235 102.340,250.246 103.843,250.246 105.112 C 250.246 105.654,250.109 105.628,249.360 104.942 C 246.866 102.662,243.037 102.075,242.355 103.868 C 241.479 106.172,241.969 108.776,243.619 110.592 L 244.382 111.431 242.909 111.707 C 240.964 112.072,238.818 114.193,238.818 115.750 C 238.818 117.785,244.577 120.134,248.341 119.634 C 250.204 119.387,250.261 119.409,250.043 120.280 C 249.527 122.341,250.663 122.760,252.936 121.347 C 256.369 119.213,261.161 120.181,261.909 123.159 C 262.539 125.668,260.240 125.960,257.292 123.744 C 254.771 121.850,254.542 121.829,253.237 123.380 C 251.830 125.052,251.954 125.980,253.821 127.757 L 255.425 129.283 254.207 129.707 L 252.989 130.132 256.345 132.474 L 259.702 134.816 263.278 132.970 C 275.901 126.450,275.553 116.568,262.606 113.880 C 258.418 113.011,255.001 108.467,254.984 103.744 C 254.974 101.013,254.718 100.823,252.404 101.831 M172.020 103.778 C 166.662 105.556,164.514 108.527,165.529 112.757 C 166.068 115.006,166.267 115.062,168.200 113.517 C 173.805 109.035,181.848 109.252,185.837 113.992 C 186.746 115.073,186.906 115.117,188.964 114.860 C 191.574 114.534,191.556 114.692,189.360 111.260 C 185.676 105.502,177.481 101.966,172.020 103.778 M218.390 103.844 C 213.274 104.978,206.139 110.957,206.112 114.132 C 206.101 115.431,210.149 115.076,211.740 113.638 C 216.586 109.260,222.036 109.089,228.056 113.126 L 230.890 115.027 231.353 113.625 C 233.458 107.248,226.550 102.035,218.390 103.844 M27.917 134.326 C 24.286 137.570,27.241 145.419,32.094 145.419 C 34.547 145.419,38.888 144.446,43.104 142.952 C 56.379 138.248,73.243 144.350,80.527 156.494 C 82.443 159.689,82.031 158.137,79.706 153.402 C 76.273 146.411,70.327 140.417,64.761 138.334 C 58.137 135.856,45.762 136.277,38.818 139.218 C 36.652 140.135,35.150 140.448,33.444 140.337 C 32.984 140.308,32.724 139.760,32.536 138.424 C 31.822 133.342,30.415 132.094,27.917 134.326 M366.728 134.215 C 366.037 134.906,365.803 135.664,365.397 138.528 C 365.067 140.848,363.735 141.273,360.556 140.073 C 355.074 138.003,353.374 137.562,349.502 137.206 C 333.928 135.776,324.608 140.738,318.077 153.935 C 315.900 158.334,315.700 159.506,317.682 156.256 C 324.793 144.593,342.239 138.565,355.118 143.323 C 364.644 146.841,369.098 146.358,371.095 141.589 C 372.851 137.394,369.391 131.552,366.728 134.215 M47.633 150.938 C 37.065 152.614,20.100 163.824,16.324 171.626 C 12.930 178.637,16.219 186.748,21.344 184.006 C 22.050 183.628,22.113 183.673,21.884 184.395 C 19.945 190.503,27.987 194.728,34.147 190.837 C 36.255 189.505,36.255 189.523,34.097 188.635 C 31.962 187.757,29.951 185.585,29.951 184.157 C 29.951 183.128,29.961 183.132,31.232 184.602 C 33.466 187.187,36.792 186.941,40.646 183.907 C 42.129 182.740,42.060 182.607,39.830 182.343 C 35.493 181.829,32.023 178.822,36.205 179.201 C 38.893 179.444,40.755 178.926,42.285 177.507 L 43.382 176.490 41.841 175.373 C 34.522 170.072,37.761 164.297,50.048 160.741 C 54.673 159.402,59.508 159.909,66.115 162.424 C 69.832 163.840,70.136 164.139,66.995 163.291 C 61.969 161.935,55.797 162.604,51.165 165.006 C 46.760 167.291,46.205 168.765,49.413 169.665 L 50.859 170.071 49.464 171.422 C 47.919 172.920,46.502 175.537,46.502 176.893 C 46.502 178.757,50.796 179.424,52.974 177.898 C 54.094 177.114,54.288 177.185,54.575 178.493 C 54.923 180.078,56.610 181.675,57.937 181.675 C 59.016 181.675,59.017 181.673,58.627 179.842 C 56.552 170.116,72.545 170.740,77.037 180.560 C 79.293 185.494,79.620 190.254,78.021 194.902 C 76.829 198.365,76.650 198.371,76.650 194.947 C 76.649 189.320,74.130 185.538,70.328 185.455 C 68.359 185.413,66.601 186.730,66.601 188.246 C 66.601 188.782,66.365 189.163,66.032 189.163 C 64.740 189.163,63.375 190.920,63.156 192.865 C 62.948 194.708,62.970 194.760,63.846 194.482 C 69.122 192.807,71.829 197.575,68.592 202.841 C 65.624 207.668,55.560 206.774,52.840 201.442 C 50.673 197.194,51.829 193.498,55.326 193.498 C 57.270 193.498,57.931 194.021,57.931 195.561 C 57.931 196.565,58.013 196.634,58.739 196.246 C 60.802 195.142,60.595 192.369,58.335 190.837 C 57.239 190.095,57.160 189.951,57.847 189.951 C 59.264 189.951,60.612 190.660,60.896 191.557 C 61.250 192.670,61.857 191.833,61.866 190.220 C 61.879 187.835,59.421 186.036,56.125 186.019 C 54.170 186.008,53.791 185.701,54.613 184.792 C 55.893 183.378,51.950 182.424,48.946 183.422 C 40.245 186.312,37.863 198.342,44.617 205.281 L 46.305 207.015 42.956 206.782 C 37.206 206.381,34.279 204.802,34.292 202.108 C 34.301 200.175,34.771 199.644,36.216 199.933 C 37.860 200.262,38.026 197.990,36.471 196.435 C 31.305 191.269,25.396 202.185,30.322 207.795 L 31.438 209.067 29.020 209.820 C 27.689 210.235,25.820 211.104,24.865 211.752 C 22.274 213.510,19.589 214.389,16.013 214.650 C 11.412 214.986,11.176 215.405,15.431 215.688 C 20.001 215.992,21.951 216.570,25.385 218.641 C 26.868 219.536,28.724 220.465,29.509 220.706 C 30.294 220.947,31.173 221.219,31.462 221.311 C 31.831 221.429,31.656 221.829,30.873 222.659 C 26.190 227.621,29.738 236.463,35.745 234.804 C 38.299 234.099,39.143 230.231,36.689 230.479 C 35.204 230.628,34.695 230.126,34.686 228.503 C 34.671 225.849,37.995 223.998,43.547 223.569 L 46.700 223.325 44.989 225.189 C 36.853 234.060,43.671 250.535,54.030 247.035 C 55.802 246.436,55.804 246.433,54.978 245.520 C 54.283 244.752,54.286 244.729,55.092 244.729 C 60.104 244.729,63.753 241.335,61.872 238.424 C 61.543 237.914,61.489 237.925,61.484 238.500 C 61.476 239.332,60.010 240.394,58.868 240.394 C 58.081 240.394,58.121 240.283,59.350 239.054 C 60.988 237.415,61.063 236.147,59.606 234.684 L 58.522 233.596 58.399 235.044 C 58.183 237.571,54.114 237.908,52.827 235.505 C 49.376 229.055,58.988 221.829,66.306 225.371 C 72.504 228.372,71.711 237.122,65.320 236.243 L 63.333 235.969 63.607 237.685 C 63.907 239.560,65.145 241.182,66.276 241.182 C 66.773 241.182,66.995 241.475,66.995 242.132 C 66.995 243.400,69.068 245.123,70.592 245.123 C 74.579 245.123,77.573 240.276,77.146 234.511 L 76.955 231.921 77.688 233.558 C 82.821 245.024,76.578 257.197,65.424 257.470 C 60.210 257.598,57.742 254.398,59.291 249.518 C 60.033 247.180,55.979 249.246,55.111 251.648 C 54.748 252.652,54.448 252.955,54.006 252.765 C 47.048 249.778,44.675 253.341,49.901 258.927 L 51.733 260.887 50.361 260.887 C 49.057 260.887,47.685 261.818,47.685 262.704 C 47.685 263.415,52.219 266.027,54.975 266.904 C 58.356 267.980,64.831 268.056,67.962 267.056 C 71.075 266.062,70.457 266.567,66.903 267.921 C 59.272 270.828,54.912 271.184,49.261 269.362 C 38.371 265.850,35.762 261.311,41.528 255.905 L 43.689 253.879 42.824 253.067 C 40.923 251.280,37.559 250.559,35.241 251.440 C 34.200 251.836,34.188 251.825,34.762 250.961 C 35.765 249.450,37.154 248.675,39.711 248.199 L 42.173 247.742 41.315 246.828 C 38.029 243.330,33.304 243.205,31.093 246.558 L 30.350 247.685 30.349 246.700 C 30.347 244.982,31.771 243.218,34.070 242.090 C 36.591 240.854,36.490 240.443,33.300 238.956 C 27.745 236.366,22.463 239.069,22.463 244.503 C 22.463 246.677,22.462 246.679,21.452 246.296 C 17.541 244.809,15.007 248.115,15.442 254.136 C 15.707 257.798,17.273 260.506,21.636 264.849 C 37.801 280.937,59.611 284.380,70.793 272.609 C 84.125 258.574,87.897 238.573,79.477 226.558 C 76.026 221.633,68.133 215.567,65.176 215.567 C 64.078 215.567,64.680 214.956,66.504 214.222 C 87.253 205.863,89.215 178.824,70.582 158.013 C 65.748 152.613,56.005 149.610,47.633 150.938 M342.069 151.182 C 335.051 152.554,331.657 154.287,327.603 158.571 C 308.973 178.252,311.163 206.088,332.009 214.561 L 334.207 215.454 331.835 216.318 C 310.775 223.997,308.568 252.935,327.521 272.888 C 334.109 279.823,344.863 281.872,355.782 278.274 C 365.550 275.055,378.329 265.569,381.457 259.215 C 384.936 252.149,381.840 243.975,376.723 246.713 C 376.014 247.093,375.961 246.976,375.960 245.038 C 375.958 238.946,369.861 236.312,363.878 239.819 C 361.730 241.078,361.742 241.167,364.207 242.365 C 366.385 243.423,367.449 244.623,367.875 246.501 L 368.143 247.682 367.301 246.712 C 364.495 243.477,361.114 243.572,357.068 247.001 L 355.713 248.150 357.996 248.418 C 360.471 248.709,361.486 249.115,362.857 250.364 C 364.165 251.556,363.992 251.679,361.248 251.504 C 357.708 251.279,353.479 253.497,355.112 254.722 C 361.995 259.885,361.421 264.327,353.402 267.963 C 347.020 270.857,342.546 271.341,336.504 269.791 C 332.529 268.771,327.945 266.944,330.640 267.454 C 337.851 268.817,344.087 267.790,348.959 264.438 C 351.039 263.007,350.878 261.883,348.479 261.080 L 347.289 260.681 348.668 259.109 C 353.083 254.074,351.016 250.014,345.348 252.588 L 343.700 253.336 343.271 252.104 C 342.654 250.334,341.319 249.064,340.075 249.064 L 339.007 249.064 339.207 251.552 C 339.642 256.980,335.594 259.163,328.822 257.152 C 320.322 254.627,316.372 243.551,320.550 233.958 L 321.379 232.053 321.383 235.928 C 321.387 240.101,321.828 241.471,323.869 243.652 C 326.194 246.136,330.382 245.683,331.215 242.857 C 331.422 242.153,331.797 241.576,332.047 241.576 C 333.164 241.576,334.581 239.506,334.581 237.874 L 334.581 236.250 332.799 236.392 C 329.343 236.667,327.882 235.457,327.882 232.322 C 327.882 225.944,335.476 222.563,341.794 226.127 C 345.563 228.254,347.382 233.935,345.043 236.274 C 343.032 238.285,339.158 237.220,339.906 234.862 C 340.236 233.822,339.639 233.885,338.591 235.001 C 337.096 236.592,337.607 238.666,339.828 240.020 L 341.084 240.785 339.974 240.787 C 338.508 240.789,337.372 240.148,336.964 239.088 C 336.643 238.253,336.619 238.261,336.188 239.362 C 335.062 242.238,337.829 244.720,342.167 244.727 C 343.745 244.729,344.243 245.593,342.956 246.097 C 341.783 246.555,344.347 247.639,346.601 247.637 C 356.370 247.630,360.667 233.839,353.451 225.653 L 351.747 223.720 355.085 223.935 C 361.387 224.340,364.988 227.086,363.316 230.211 C 362.966 230.866,362.643 230.965,361.542 230.759 C 359.556 230.386,359.960 234.248,361.988 235.026 C 368.445 237.504,372.430 227.515,366.996 222.476 C 365.983 221.537,365.968 221.478,366.753 221.478 C 368.165 221.478,370.919 220.335,373.397 218.721 C 375.934 217.068,379.540 216.003,382.857 215.927 C 386.733 215.838,386.964 215.331,383.251 215.060 C 378.817 214.736,376.450 214.033,373.744 212.236 C 372.577 211.461,370.780 210.553,369.752 210.218 C 368.723 209.884,367.632 209.526,367.327 209.424 C 366.908 209.283,367.025 208.973,367.804 208.160 C 372.624 203.129,368.681 193.559,362.800 196.016 C 360.247 197.083,359.581 200.706,362.010 200.311 C 364.543 199.900,365.038 202.605,362.814 204.702 C 361.221 206.205,359.098 206.891,355.116 207.193 L 352.136 207.418 353.798 205.530 C 357.839 200.939,358.802 195.530,356.484 190.444 C 354.007 185.012,348.477 182.045,344.179 183.841 L 342.767 184.431 343.674 185.166 L 344.582 185.901 342.242 186.192 C 338.260 186.688,336.552 188.008,336.552 190.587 C 336.552 191.512,336.729 192.378,336.946 192.512 C 337.163 192.646,337.340 192.489,337.340 192.164 C 337.340 191.397,338.850 190.345,339.950 190.345 C 340.737 190.345,340.697 190.456,339.468 191.685 C 337.575 193.578,337.691 195.020,339.868 196.670 C 340.577 197.206,340.607 197.175,340.355 196.164 C 339.727 193.642,343.262 192.654,345.475 194.733 C 346.649 195.835,346.734 198.856,345.657 201.182 C 342.157 208.741,329.523 207.711,328.435 199.778 C 327.928 196.073,329.685 194.144,333.361 194.371 L 335.172 194.483 335.060 193.112 C 334.920 191.400,334.044 190.027,332.787 189.549 C 332.222 189.334,331.823 188.866,331.823 188.419 C 331.823 186.965,329.521 185.506,327.574 185.726 C 323.938 186.135,321.790 189.557,321.780 194.956 L 321.773 198.583 321.083 197.240 C 316.960 189.217,320.073 178.050,327.366 174.697 C 334.631 171.357,339.990 173.316,339.615 179.173 C 339.356 183.205,342.461 183.026,343.685 178.938 L 344.139 177.425 345.493 178.224 C 351.127 181.548,353.478 176.781,348.740 171.640 L 347.202 169.972 348.442 169.937 C 349.151 169.916,350.035 169.541,350.506 169.060 L 351.330 168.219 349.951 167.050 C 345.399 163.190,337.942 161.941,330.246 163.750 C 327.969 164.285,334.259 161.863,337.143 161.094 C 342.966 159.542,347.837 160.179,354.524 163.368 C 361.159 166.533,362.041 170.605,357.062 175.082 L 355.077 176.867 356.423 178.048 C 357.938 179.379,360.175 179.911,362.562 179.507 C 364.344 179.206,364.555 179.588,363.251 180.754 C 362.135 181.752,360.533 182.354,358.087 182.693 L 356.174 182.959 357.299 183.916 C 361.022 187.083,364.414 187.449,366.964 184.958 C 368.628 183.334,368.750 183.401,367.890 185.460 C 367.224 187.054,366.157 188.035,364.039 189.002 C 362.061 189.905,362.141 190.088,365.149 191.569 C 370.863 194.382,375.931 192.130,376.282 186.621 C 376.441 184.122,376.455 184.097,377.410 184.460 C 381.072 185.852,383.799 182.332,383.353 176.785 C 382.376 164.605,356.258 148.408,342.069 151.182 M156.059 165.663 L 156.059 167.780 158.831 168.053 C 164.358 168.598,167.019 169.800,168.397 172.375 L 169.261 173.990 169.261 212.808 C 169.261 234.158,169.128 252.100,168.966 252.679 C 168.166 255.531,165.820 257.005,160.909 257.743 C 155.588 258.543,156.059 258.256,156.059 260.697 L 156.059 262.857 176.355 262.857 L 196.650 262.857 196.650 260.708 L 196.650 258.558 195.172 258.333 C 182.641 256.427,183.097 257.277,182.931 235.523 L 182.809 219.420 188.646 219.570 C 197.698 219.801,197.641 219.757,205.519 232.709 C 221.736 259.373,225.550 262.558,242.814 263.848 C 246.584 264.130,246.493 264.180,246.862 261.636 L 247.124 259.823 245.237 259.118 C 240.149 257.217,236.441 253.801,229.551 244.670 C 224.458 237.919,209.615 215.297,210.112 215.044 C 210.186 215.006,211.480 214.355,212.987 213.596 C 236.357 201.834,234.962 170.802,210.800 164.957 C 205.731 163.731,202.110 163.571,179.212 163.559 L 156.059 163.547 156.059 165.663 M200.002 169.591 C 209.663 172.202,214.626 178.715,215.073 189.373 C 215.772 206.013,208.050 213.633,189.852 214.261 L 182.857 214.503 182.857 193.938 C 182.857 171.699,182.882 171.417,184.967 170.051 C 187.115 168.643,195.541 168.386,200.002 169.591 M92.652 184.717 C 85.804 188.090,87.548 201.714,95.460 206.660 C 98.169 208.353,98.180 208.350,98.431 205.739 C 98.594 204.035,98.480 203.611,97.567 202.525 C 93.759 197.999,93.747 192.947,97.531 187.419 L 99.285 184.858 97.820 184.451 C 95.748 183.875,94.198 183.955,92.652 184.717 M300.296 184.693 C 299.970 184.801,299.468 184.965,299.179 185.056 C 298.808 185.173,299.084 185.810,300.108 187.205 C 304.086 192.625,304.146 198.198,300.278 203.031 C 299.056 204.557,298.536 208.473,299.554 208.473 C 301.983 208.473,307.006 203.305,308.526 199.243 C 311.693 190.778,306.988 182.461,300.296 184.693 M86.549 206.162 C 85.568 207.562,85.726 209.900,86.879 211.052 L 87.846 212.020 86.386 212.028 C 84.002 212.042,79.724 214.592,80.855 215.324 C 80.927 215.371,81.560 215.875,82.262 216.444 C 82.982 217.028,84.501 217.679,85.746 217.938 L 87.953 218.396 87.129 219.273 C 86.141 220.325,86.039 222.498,86.919 223.755 C 87.701 224.872,88.046 224.858,88.579 223.688 C 89.128 222.484,92.464 220.874,95.677 220.264 L 98.151 219.794 98.041 215.025 L 97.931 210.256 95.900 209.964 C 92.574 209.487,89.599 208.180,88.330 206.640 L 87.186 205.252 86.549 206.162 M309.845 206.657 C 309.251 207.959,305.598 209.659,302.264 210.184 L 299.507 210.618 299.507 215.377 L 299.507 220.135 302.103 220.580 C 305.333 221.133,308.877 222.823,309.451 224.082 C 310.015 225.321,310.394 225.271,311.123 223.862 C 311.989 222.186,311.867 220.919,310.704 219.538 L 309.684 218.325 311.171 218.325 C 312.710 218.325,316.059 216.951,316.059 216.320 C 316.059 216.122,316.325 215.961,316.650 215.961 C 317.354 215.961,317.379 215.772,316.815 214.719 C 316.276 213.711,313.499 212.434,311.823 212.422 C 310.324 212.412,310.280 212.280,311.330 210.945 C 312.273 209.747,312.332 208.453,311.517 206.877 C 310.788 205.468,310.409 205.418,309.845 206.657 M95.567 223.669 C 85.074 230.908,87.787 249.674,98.725 245.515 L 99.767 245.119 98.547 243.578 C 94.373 238.308,94.115 232.934,97.785 227.722 C 98.522 226.676,98.721 224.820,98.274 223.153 C 97.973 222.030,97.931 222.038,95.567 223.669 M299.053 224.247 C 298.933 225.992,299.092 226.496,300.392 228.473 C 303.773 233.613,303.456 238.595,299.423 243.688 C 298.086 245.377,298.239 245.693,300.613 246.151 C 310.953 248.141,312.025 229.813,301.927 223.679 C 299.035 221.922,299.216 221.886,299.053 224.247 M100.808 248.195 C 87.614 261.880,79.874 284.785,81.545 305.201 C 84.537 341.775,94.960 364.296,111.504 369.936 C 117.367 371.935,117.275 371.553,110.185 364.433 C 97.375 351.570,90.598 337.756,87.613 318.424 C 86.407 310.611,86.695 293.008,88.139 286.305 C 88.233 285.872,88.579 284.010,88.908 282.167 C 90.532 273.071,96.405 261.156,103.326 252.912 L 104.562 251.440 103.838 249.051 C 102.913 245.996,102.925 245.999,100.808 248.195 M293.725 248.748 L 292.870 251.191 295.211 254.101 C 305.275 266.611,309.360 277.717,310.971 296.946 C 313.304 324.780,303.314 351.692,284.624 367.924 C 280.465 371.536,280.590 372.001,285.347 370.602 C 301.449 365.870,312.376 344.604,315.849 311.243 C 318.467 286.097,311.729 263.797,296.795 248.177 C 294.576 245.856,294.750 245.824,293.725 248.748 M104.954 255.201 C 97.155 266.236,93.262 291.825,96.786 308.887 C 101.972 333.994,119.397 349.818,132.143 340.997 C 137.085 337.577,136.791 329.787,131.676 328.637 C 127.572 327.715,125.019 331.682,127.729 334.769 C 129.202 336.446,128.934 336.998,126.288 337.739 C 118.722 339.857,108.819 332.093,103.431 319.820 L 102.401 317.472 105.056 320.340 C 109.298 324.922,113.310 326.630,115.774 324.904 C 116.959 324.074,116.884 323.763,115.271 322.811 C 113.535 321.786,113.541 321.467,115.311 320.827 C 119.528 319.302,119.355 314.499,115.133 315.880 C 113.629 316.372,112.871 316.433,112.039 316.129 L 110.936 315.727 111.997 315.696 C 113.130 315.663,114.286 314.408,114.286 313.213 C 114.286 312.396,114.263 312.391,112.913 312.904 C 110.012 314.007,106.784 310.360,103.553 302.332 C 101.697 297.719,101.677 297.128,103.477 300.122 C 106.974 305.936,110.227 308.966,112.974 308.966 C 114.199 308.966,114.254 308.905,114.030 307.783 C 113.755 306.413,113.747 306.416,115.604 307.192 C 119.199 308.694,122.210 307.044,122.778 303.262 C 123.239 300.188,121.517 299.592,117.725 301.511 L 116.237 302.263 116.863 301.054 C 117.918 299.014,117.162 297.232,114.700 295.955 C 113.845 295.512,113.670 295.552,113.174 296.299 C 110.451 300.400,103.902 292.606,102.624 283.744 C 101.873 278.532,101.907 275.909,102.685 279.120 C 104.688 287.386,107.710 291.692,111.466 291.630 C 112.692 291.609,114.436 291.706,115.342 291.845 C 116.725 292.057,117.068 291.971,117.482 291.308 C 117.914 290.617,118.077 290.584,118.791 291.043 C 121.258 292.630,124.193 291.798,125.447 289.157 C 126.790 286.327,126.647 286.065,123.350 285.323 C 110.149 282.353,104.618 274.270,107.358 261.955 L 108.004 259.051 106.887 256.549 L 105.769 254.047 104.954 255.201 M290.682 256.374 L 289.681 258.560 290.352 261.004 C 293.760 273.430,288.270 282.265,275.177 285.426 C 271.151 286.399,271.087 286.480,272.281 289.110 C 273.509 291.813,276.105 292.790,278.798 291.563 C 279.630 291.184,279.931 291.225,280.574 291.807 C 281.157 292.335,281.668 292.438,282.645 292.225 C 283.358 292.069,284.983 291.968,286.257 291.999 C 290.093 292.094,293.049 287.898,295.232 279.257 L 295.941 276.453 295.717 280.197 C 295.222 288.471,293.204 293.453,289.161 296.382 C 287.288 297.739,285.545 297.887,284.835 296.749 C 283.161 294.069,279.723 298.655,281.226 301.562 L 281.860 302.789 280.486 301.979 C 276.211 299.456,273.871 300.989,275.617 305.168 C 276.810 308.024,279.306 308.833,282.479 307.393 L 284.169 306.626 283.913 307.993 C 283.674 309.262,283.728 309.360,284.660 309.360 C 287.736 309.360,291.493 305.803,294.859 299.704 C 296.219 297.240,296.232 297.522,294.926 301.159 C 291.824 309.798,288.603 313.744,285.117 313.179 C 282.778 312.799,283.494 315.521,285.911 316.199 C 286.345 316.320,285.724 316.353,284.532 316.272 C 283.340 316.191,281.972 316.002,281.492 315.853 C 280.764 315.626,280.508 315.813,279.952 316.978 C 279.082 318.803,279.775 319.980,282.340 321.035 C 284.535 321.938,284.539 321.994,282.496 323.142 L 280.854 324.065 281.927 324.988 C 284.266 327.000,287.909 325.648,292.404 321.100 C 295.196 318.275,295.234 318.253,294.598 319.803 C 289.702 331.736,279.380 340.136,272.041 338.160 C 269.376 337.443,268.794 336.803,269.803 335.697 C 272.763 332.451,271.004 328.256,266.918 328.816 C 260.191 329.739,260.526 338.720,267.414 342.111 C 281.055 348.826,297.086 332.136,301.709 306.404 C 304.314 291.906,300.766 269.125,294.086 257.455 C 291.867 253.579,291.950 253.605,290.682 256.374 M95.688 268.231 C 81.567 298.953,89.693 346.273,111.590 360.830 C 120.459 366.726,130.457 364.363,130.438 356.374 C 130.428 352.133,130.256 351.997,127.933 354.396 C 120.417 362.161,110.910 358.401,102.495 344.335 C 101.184 342.145,101.749 342.544,103.331 344.926 C 109.659 354.456,118.496 358.017,123.471 353.043 C 124.530 351.983,124.612 351.707,124.447 349.723 C 124.214 346.907,123.919 346.643,121.638 347.218 C 113.200 349.343,105.489 343.219,98.531 328.867 C 92.891 317.232,91.583 311.025,91.930 297.537 C 92.192 287.339,93.303 280.303,96.340 269.625 C 97.696 264.854,97.466 264.362,95.688 268.231 M300.451 266.241 C 306.580 282.198,307.835 306.688,303.212 320.095 C 296.501 339.558,285.490 350.663,276.081 347.458 L 274.252 346.834 273.840 347.900 C 272.581 351.156,273.455 353.394,276.513 354.747 C 282.438 357.368,288.892 353.581,295.870 343.391 C 296.290 342.778,296.296 342.819,295.909 343.645 C 295.169 345.222,292.487 349.160,290.391 351.748 C 283.922 359.734,275.816 360.868,269.876 354.616 L 268.028 352.671 267.612 354.168 C 265.936 360.203,269.740 364.142,277.377 364.280 C 287.244 364.459,298.955 351.278,305.173 332.995 C 311.436 314.582,309.777 282.859,301.738 267.314 C 300.991 265.869,299.987 265.031,300.451 266.241 M315.278 271.225 C 315.216 273.735,320.985 283.102,324.859 286.782 C 330.821 292.445,333.653 293.401,344.433 293.393 C 353.059 293.386,353.681 293.286,358.954 291.062 C 360.642 290.350,361.986 290.046,363.092 290.127 L 364.729 290.246 365.010 292.512 C 365.739 298.377,370.192 298.759,371.051 293.030 C 372.214 285.276,366.265 283.261,354.483 287.418 C 340.619 292.310,323.493 285.822,316.423 273.000 C 315.797 271.865,315.282 271.066,315.278 271.225 M81.098 273.421 C 77.261 280.197,70.873 285.078,62.857 287.358 C 57.906 288.766,47.891 288.698,43.744 287.228 C 32.255 283.154,26.798 284.505,26.798 291.422 C 26.798 298.752,32.451 298.410,33.183 291.034 C 33.349 289.365,36.095 289.431,40.131 291.203 C 45.221 293.436,53.889 294.071,61.795 292.787 C 68.871 291.639,76.106 285.087,80.629 275.733 C 82.584 271.690,82.866 270.298,81.098 273.421 M134.637 297.617 C 122.557 303.983,122.998 313.795,135.486 316.473 C 139.997 317.440,143.448 321.984,143.448 326.955 C 143.448 328.784,143.550 329.064,144.218 329.064 C 146.183 329.064,148.177 327.151,148.177 325.266 C 148.177 324.695,148.357 324.750,149.261 325.592 C 151.251 327.448,154.653 328.264,155.765 327.151 C 156.645 326.272,156.387 321.956,155.369 320.530 C 154.251 318.963,154.251 318.963,155.643 318.684 C 159.220 317.969,160.574 314.186,157.806 312.640 C 155.267 311.222,151.520 310.398,149.704 310.859 L 148.177 311.246 148.177 309.745 C 148.177 307.893,147.607 307.659,145.905 308.814 C 142.797 310.923,140.279 310.961,137.822 308.936 C 133.856 305.666,137.352 303.771,141.419 306.985 L 143.406 308.556 144.588 307.561 C 146.788 305.711,146.657 304.065,144.167 302.261 L 142.588 301.117 143.609 300.861 C 145.066 300.495,144.948 300.331,141.554 298.030 C 137.922 295.566,138.467 295.599,134.637 297.617 M255.587 298.244 L 252.455 300.451 253.781 300.993 L 255.107 301.534 254.050 302.227 C 251.580 303.847,251.162 305.820,252.928 307.512 C 254.328 308.854,254.424 308.845,256.521 307.179 C 260.251 304.214,263.680 305.729,260.430 308.907 C 258.058 311.226,255.380 311.303,252.122 309.147 C 250.332 307.962,249.280 308.363,249.540 310.131 C 249.688 311.141,249.681 311.143,246.716 311.155 C 242.691 311.171,238.424 313.069,238.424 314.844 C 238.424 316.818,241.042 319.212,243.202 319.212 L 244.078 319.212 243.271 320.099 C 241.574 321.962,241.075 324.541,241.961 326.871 C 242.613 328.587,246.664 327.981,248.960 325.824 L 249.852 324.986 249.852 325.869 C 249.852 327.266,250.596 328.298,252.039 328.900 C 254.282 329.837,254.433 329.718,254.441 326.995 C 254.454 322.947,258.023 317.706,261.248 317.001 C 275.158 313.961,275.978 304.532,262.920 297.788 C 258.681 295.598,259.403 295.553,255.587 298.244 M64.393 296.914 C 62.465 297.517,59.822 299.293,57.961 301.234 C 55.082 304.238,49.195 304.750,45.309 302.334 C 42.959 300.874,42.603 301.002,42.278 303.426 C 42.103 304.728,42.236 305.317,42.906 306.225 L 43.756 307.374 42.277 307.991 C 36.398 310.448,37.763 316.056,44.130 315.601 L 45.998 315.468 45.659 316.648 C 44.921 319.216,45.492 321.507,47.081 322.358 C 48.873 323.317,54.748 318.890,55.355 316.123 C 55.673 314.678,55.681 314.675,56.957 315.511 C 58.399 316.456,59.207 315.975,58.903 314.354 C 58.053 309.823,63.549 304.337,66.241 307.029 C 67.735 308.523,66.313 310.314,62.672 311.523 C 61.582 311.885,60.691 312.300,60.692 312.445 C 60.720 315.875,63.207 317.087,66.546 315.300 C 67.204 314.948,67.387 314.960,67.380 315.356 C 67.354 316.875,64.011 319.208,61.857 319.210 C 60.070 319.212,57.224 320.665,56.181 322.107 L 55.369 323.228 56.730 324.370 C 57.635 325.129,58.730 325.596,59.999 325.764 L 61.906 326.017 60.805 326.703 C 55.329 330.112,55.476 339.813,61.006 339.883 L 62.463 339.901 62.463 342.934 C 62.463 348.266,66.872 351.141,70.936 348.459 C 71.631 348.000,72.577 347.844,74.149 347.929 C 78.418 348.158,80.454 344.567,78.779 339.763 C 78.324 338.459,77.635 338.085,77.635 339.144 C 77.635 340.443,75.348 342.183,73.995 341.912 C 67.255 340.564,66.457 329.881,72.252 318.573 C 73.366 316.398,73.730 315.092,74.094 311.968 C 75.387 300.871,71.420 294.714,64.393 296.914 M328.883 297.036 C 323.139 298.495,321.642 310.779,326.108 319.803 C 331.048 329.785,330.363 339.861,324.594 342.047 C 323.091 342.616,321.565 341.878,320.788 340.206 C 319.762 337.998,318.818 339.287,318.818 342.895 C 318.818 347.032,320.415 348.647,324.092 348.226 C 325.633 348.049,326.212 348.160,327.002 348.781 C 330.725 351.709,336.019 347.896,335.637 342.562 L 335.460 340.099 336.956 340.099 C 341.540 340.099,342.708 332.410,338.728 328.430 L 336.625 326.327 338.066 326.078 C 339.633 325.806,342.463 324.170,342.463 323.535 C 342.463 322.486,339.817 320.392,337.931 319.949 C 336.847 319.695,335.312 319.333,334.518 319.147 C 332.901 318.765,330.640 316.868,330.640 315.891 C 330.640 315.309,330.746 315.305,331.803 315.852 C 334.586 317.291,336.946 316.194,336.946 313.461 C 336.946 312.323,336.796 312.179,335.127 311.711 C 331.722 310.758,330.175 308.683,331.784 307.227 C 334.306 304.945,338.916 309.112,338.916 313.675 C 338.916 316.270,339.730 316.871,341.309 315.442 C 341.940 314.871,342.027 314.935,342.479 316.304 C 343.488 319.362,349.041 323.667,350.778 322.738 C 352.403 321.868,353.034 318.785,352.091 316.327 C 351.966 316.002,352.616 315.862,354.245 315.862 C 360.335 315.862,361.338 310.520,355.655 308.350 C 353.992 307.715,353.927 307.636,354.641 307.135 C 355.665 306.418,356.026 304.549,355.468 302.859 C 355.019 301.497,354.194 301.064,353.670 301.912 C 351.482 305.452,343.518 304.813,339.075 300.742 C 335.529 297.493,332.057 296.230,328.883 297.036 M185.958 316.137 C 182.490 321.032,173.479 321.300,167.980 316.672 C 166.572 315.488,166.036 315.411,165.770 316.355 C 163.006 326.174,175.090 330.446,185.449 323.311 C 187.513 321.890,191.604 316.399,191.028 315.823 C 190.253 315.048,186.568 315.276,185.958 316.137 M206.961 315.618 L 205.646 315.862 207.619 318.880 C 215.179 330.445,235.270 328.588,231.342 316.687 L 230.869 315.253 229.031 316.592 C 222.776 321.146,216.695 321.183,211.728 316.696 C 210.134 315.256,209.586 315.132,206.961 315.618 M192.575 319.331 C 191.835 323.244,190.388 326.332,188.928 327.114 C 187.754 327.742,187.741 328.063,188.856 328.845 C 190.091 329.710,192.398 329.619,193.621 328.657 L 194.639 327.856 194.883 329.347 C 196.001 336.184,201.239 336.250,202.046 329.438 L 202.277 327.490 203.261 328.474 C 204.442 329.655,206.426 329.780,208.117 328.782 C 209.515 327.956,209.536 327.740,208.275 327.165 C 206.464 326.340,204.781 322.618,204.232 318.221 L 203.940 315.879 198.593 315.830 L 193.246 315.781 192.575 319.331 M221.628 329.852 C 211.948 331.270,203.314 338.666,200.070 348.317 C 199.119 351.146,199.089 351.184,198.825 349.894 C 197.679 344.284,191.951 336.857,186.119 333.423 C 169.417 323.584,139.999 335.357,135.109 353.838 C 130.728 370.395,146.949 398.227,160.979 398.227 C 166.510 398.227,169.331 395.562,167.474 392.092 C 167.092 391.380,167.214 391.330,169.346 391.329 C 175.123 391.325,177.870 385.467,174.715 379.882 C 173.194 377.189,173.011 377.173,171.808 379.625 C 170.713 381.857,168.759 383.452,167.134 383.442 C 166.113 383.435,166.115 383.431,167.404 382.605 C 170.084 380.889,170.582 377.834,168.712 374.581 C 166.697 371.077,166.065 370.807,165.804 373.338 C 165.495 376.339,163.959 379.113,162.609 379.113 C 162.562 379.113,162.596 377.990,162.683 376.618 C 162.866 373.744,160.776 368.911,159.861 370.092 C 159.795 370.177,159.240 370.920,158.627 371.744 C 154.501 377.286,149.547 376.099,146.224 368.771 C 142.692 360.981,142.656 355.446,146.080 346.697 C 147.318 343.533,147.541 343.435,146.741 346.404 C 144.655 354.149,149.144 368.844,152.497 365.246 C 152.939 364.772,153.300 363.940,153.300 363.399 L 153.300 362.414 154.384 363.433 C 159.793 368.517,164.358 366.794,161.596 360.711 L 160.846 359.057 162.138 358.630 C 165.915 357.384,166.369 354.450,162.759 354.619 C 158.139 354.835,156.457 353.311,156.455 348.909 C 156.448 337.320,168.695 330.837,180.648 336.102 L 182.266 336.815 179.113 336.645 C 175.192 336.433,172.113 337.441,170.270 339.541 C 168.083 342.032,168.759 346.126,171.446 346.664 C 172.087 346.792,172.611 347.116,172.611 347.385 C 172.611 348.257,174.570 349.860,175.873 350.053 C 177.831 350.343,177.995 350.142,177.819 347.671 C 177.352 341.110,187.377 342.160,189.190 348.862 C 190.274 352.870,188.702 357.858,185.685 359.978 C 183.259 361.683,179.422 361.921,177.957 360.456 C 176.033 358.531,176.928 354.687,179.170 355.250 C 180.348 355.546,180.354 355.057,179.186 353.960 C 177.595 352.466,175.522 352.977,174.168 355.198 C 173.500 356.292,173.402 356.343,173.400 355.592 C 173.398 354.146,174.130 352.705,175.037 352.370 C 176.181 351.947,175.381 351.448,173.559 351.448 C 171.203 351.448,169.871 353.343,169.491 357.234 L 169.261 359.591 168.429 358.696 L 167.596 357.801 167.074 359.063 C 162.753 369.495,179.546 377.144,188.550 368.845 L 190.345 367.190 190.345 369.730 C 190.345 375.925,187.167 380.393,183.976 378.685 C 183.322 378.335,183.222 378.013,183.429 376.912 C 183.776 375.062,181.837 374.950,180.068 376.718 C 177.590 379.196,179.170 383.349,183.082 384.640 C 185.871 385.560,190.893 384.188,191.947 382.218 C 192.347 381.470,192.492 381.680,193.369 384.288 C 193.909 385.894,195.052 388.130,195.927 389.291 C 198.194 392.298,198.987 394.365,199.548 398.722 L 200.042 402.562 200.273 399.212 C 200.544 395.286,201.461 392.651,203.472 390.020 C 204.319 388.912,205.294 386.922,205.809 385.250 L 206.692 382.382 208.086 383.502 C 213.599 387.932,222.682 383.296,219.719 377.565 C 218.700 375.595,214.851 375.063,215.585 376.994 C 216.309 378.898,214.556 379.919,212.230 378.947 C 210.273 378.129,208.890 375.101,208.576 370.940 C 208.316 367.513,208.090 367.577,211.343 370.163 C 217.830 375.321,228.986 372.184,231.544 364.482 C 232.591 361.330,231.640 357.073,230.184 358.391 C 229.174 359.305,229.097 359.219,228.857 356.892 C 228.455 353.001,226.509 350.856,223.862 351.385 C 222.597 351.638,221.804 352.315,222.773 352.315 C 223.627 352.315,224.595 353.604,224.865 355.100 L 225.109 356.453 224.079 354.993 C 222.703 353.041,220.697 352.589,219.288 353.912 C 218.038 355.087,218.072 355.468,219.429 355.468 C 221.845 355.468,222.353 358.594,220.274 360.673 C 219.130 361.817,218.960 361.864,216.837 361.614 C 206.127 360.356,205.683 343.645,216.360 343.645 C 219.296 343.645,220.296 344.752,220.296 348.006 L 220.296 350.433 221.773 350.162 C 223.744 349.802,224.959 348.971,225.258 347.778 C 225.393 347.239,225.765 346.798,226.083 346.798 C 227.305 346.798,228.966 344.579,228.966 342.946 C 228.966 338.697,222.448 335.376,217.040 336.869 C 214.765 337.498,215.645 336.764,218.617 335.554 C 229.519 331.117,241.001 337.155,241.500 347.586 C 241.750 352.804,240.253 354.465,235.567 354.166 C 233.210 354.016,232.906 354.077,232.906 354.702 C 232.906 355.792,234.752 357.730,236.264 358.229 L 237.626 358.679 236.979 359.930 C 234.018 365.655,238.522 367.976,243.422 363.250 L 245.071 361.660 245.408 362.960 C 246.033 365.372,247.236 365.661,248.632 363.734 C 251.964 359.134,253.074 351.411,251.262 345.437 C 250.368 342.492,250.792 342.846,252.195 346.216 C 255.627 354.459,255.762 359.637,252.743 367.240 C 249.597 375.160,245.063 376.639,240.348 371.282 L 238.746 369.462 237.811 370.550 C 236.384 372.208,235.840 374.470,236.313 376.779 C 236.747 378.898,236.745 378.903,235.640 378.312 C 234.608 377.759,233.435 375.355,233.096 373.094 C 232.744 370.742,232.596 370.762,230.870 373.383 C 228.372 377.176,228.646 380.139,231.684 382.162 L 233.023 383.054 231.796 383.054 C 230.225 383.054,228.050 381.184,226.831 378.786 L 225.926 377.006 224.840 378.860 C 221.264 384.961,224.754 392.282,230.707 391.165 L 231.929 390.936 231.925 393.370 L 231.921 395.805 233.882 396.819 C 241.745 400.884,251.916 393.217,259.722 377.340 C 269.123 358.220,264.231 343.590,245.244 334.043 C 238.611 330.708,228.288 328.876,221.628 329.852 M84.535 351.330 C 83.714 359.441,86.149 364.144,91.163 364.133 C 95.600 364.123,96.377 363.568,93.571 362.414 C 89.985 360.940,86.920 356.987,85.890 352.512 C 84.838 347.938,84.875 347.971,84.535 351.330 M312.405 350.848 C 311.808 356.537,308.280 361.300,303.251 363.205 L 302.069 363.652 303.178 364.092 C 309.766 366.704,314.174 361.384,313.401 351.755 C 313.141 348.524,312.691 348.114,312.405 350.848 M126.128 369.064 C 126.109 369.281,125.912 370.700,125.692 372.217 C 124.027 383.668,129.720 390.802,138.440 388.190 L 140.020 387.716 137.252 386.377 C 131.835 383.757,128.330 378.953,126.908 372.202 C 126.499 370.259,126.148 368.847,126.128 369.064 M271.011 372.419 C 269.684 379.079,265.978 384.184,260.666 386.670 C 257.593 388.108,257.835 388.544,261.888 388.869 C 268.987 389.439,271.861 386.011,272.218 376.552 C 272.474 369.782,271.916 367.873,271.011 372.419 " stroke="none" fill="#000000" fill-rule="evenodd"></path></g></svg>