<?xml version="1.0" standalone="no"?>
<!DOCTYPE svg PUBLIC "-//W3C//DTD SVG 20010904//EN"
 "http://www.w3.org/TR/2001/REC-SVG-20010904/DTD/svg10.dtd">
<svg version="1.0" xmlns="http://www.w3.org/2000/svg"
 width="898.000000pt" height="1030.000000pt" viewBox="0 0 898.000000 1030.000000"
 preserveAspectRatio="xMidYMid meet">

<g transform="translate(0.000000,1030.000000) scale(0.100000,-0.100000)"
fill="#000000" stroke="none">
<path d="M3620 7750 l0 -2270 430 0 430 0 0 1143 1 1142 49 -130 c27 -71 229
-584 448 -1140 l399 -1010 407 -3 406 -2 0 2270 0 2270 -430 0 -430 0 0 -1122
-1 -1123 -40 105 c-115 298 -570 1498 -652 1720 -53 140 -110 292 -127 338
l-32 82 -429 0 -429 0 0 -2270z"/>
<path d="M465 8417 c-55 -16 -88 -41 -121 -90 -25 -37 -29 -51 -29 -117 0 -65
4 -80 27 -113 35 -52 87 -85 149 -97 30 -6 319 -10 700 -10 l648 0 11 -42 c6
-24 15 -56 20 -73 5 -16 30 -111 56 -210 25 -99 59 -229 75 -290 29 -109 75
-285 143 -545 19 -74 47 -178 61 -230 14 -52 43 -165 66 -250 22 -85 50 -189
61 -230 11 -41 23 -91 28 -110 8 -34 38 -148 95 -355 15 -55 31 -117 36 -137
17 -72 28 -113 39 -153 6 -22 15 -56 20 -75 12 -51 62 -238 105 -395 10 -33
21 -76 25 -95 5 -19 14 -53 20 -75 6 -22 16 -58 21 -80 17 -69 27 -109 39
-150 24 -85 32 -121 33 -154 2 -32 0 -34 -54 -51 -298 -95 -561 -374 -653
-693 -57 -197 -53 -398 13 -604 81 -253 285 -486 526 -602 108 -52 205 -83
316 -101 82 -13 4456 -14 4512 -1 52 12 102 48 133 95 23 34 27 50 27 118 0
67 -4 82 -22 102 -11 12 -21 26 -21 30 0 12 -42 45 -80 64 -32 16 -196 17
-2280 22 l-2245 5 -63 22 c-113 40 -179 82 -252 160 -70 75 -102 129 -140 240
-32 93 -30 262 4 354 30 82 68 151 110 200 60 71 186 158 258 180 130 39 118
39 2084 39 2081 0 1924 -5 1999 61 19 17 35 37 35 45 0 8 4 22 9 32 10 18 20
55 46 162 9 36 126 504 261 1040 136 536 250 992 255 1013 12 51 28 115 39
157 10 37 24 95 39 158 5 20 46 181 91 357 94 366 102 434 59 496 -62 88 -95
102 -250 107 l-126 4 -52 -208 c-28 -115 -48 -218 -46 -229 3 -11 -35 -180
-84 -375 -49 -195 -195 -776 -325 -1290 -129 -514 -244 -970 -255 -1012 -12
-43 -21 -80 -21 -83 0 -3 -764 -4 -1697 -3 l-1698 3 -28 105 c-15 58 -45 173
-66 255 -57 215 -113 429 -156 590 -20 77 -49 190 -65 250 -16 61 -45 171 -64
245 -20 74 -54 205 -77 290 -103 393 -163 622 -209 795 -68 257 -67 235 -13
235 28 0 33 3 29 18 -3 9 -24 89 -46 177 -23 88 -46 177 -51 198 -9 35 -12 37
-50 37 -47 0 -43 -7 -93 181 -164 630 -160 617 -244 666 l-47 28 -780 2 c-569
1 -791 -2 -820 -10z"/>
<path d="M3455 1914 c-64 -10 -201 -58 -264 -92 -138 -75 -249 -188 -328 -333
-134 -246 -133 -519 3 -769 213 -387 699 -535 1090 -330 290 153 470 491 428
805 -16 118 -43 206 -90 295 -100 188 -267 325 -479 395 -65 21 -104 27 -205
30 -69 2 -138 1 -155 -1z m237 -444 c45 -13 132 -71 175 -118 38 -41 82 -146
90 -213 11 -96 -35 -216 -115 -296 -231 -231 -624 -78 -640 250 -4 67 0 87 24
150 42 105 139 196 244 228 37 11 180 10 222 -1z"/>
<path d="M6145 1914 c-64 -11 -194 -57 -270 -97 -111 -59 -253 -202 -311 -313
-134 -256 -138 -521 -12 -769 172 -337 569 -509 942 -409 131 36 307 146 391
245 80 95 128 181 167 303 26 83 29 104 29 233 1 78 -4 156 -10 175 -70 218
-110 288 -237 414 -89 89 -195 150 -326 190 -65 20 -110 26 -208 29 -69 2
-138 1 -155 -1z m285 -463 c82 -42 147 -106 182 -179 29 -62 32 -75 32 -167 0
-90 -3 -106 -29 -158 -75 -151 -247 -238 -409 -208 -85 16 -140 47 -206 118
-75 80 -102 148 -101 253 1 111 38 195 118 270 90 85 133 100 268 97 81 -3
108 -7 145 -26z"/>
</g>
</svg>
