<?xml version="1.0" standalone="no"?>
<!DOCTYPE svg PUBLIC "-//W3C//DTD SVG 20010904//EN"
 "http://www.w3.org/TR/2001/REC-SVG-20010904/DTD/svg10.dtd">
<svg version="1.0" xmlns="http://www.w3.org/2000/svg"
 width="346.000000pt" height="424.000000pt" viewBox="0 0 346.000000 424.000000"
 preserveAspectRatio="xMidYMid meet">
<metadata>
Created by potrace 1.16, written by Peter Selinger 2001-2019
</metadata>
<g transform="translate(0.000000,424.000000) scale(0.100000,-0.100000)"
fill="#000000" stroke="none">
<path d="M1672 4114 c-162 -48 -314 -145 -451 -289 -75 -80 -191 -231 -191
-249 0 -6 13 -26 29 -45 l28 -35 64 100 c36 54 78 120 94 146 17 27 32 48 35
48 3 0 47 -66 98 -145 52 -80 97 -145 100 -145 4 0 47 63 96 140 49 78 92 143
96 145 4 3 50 -60 101 -140 52 -80 97 -145 100 -145 4 0 49 65 99 145 51 80
95 145 97 145 2 0 46 -65 98 -145 53 -80 99 -144 104 -141 5 3 49 69 97 146
49 77 91 140 94 140 3 0 47 -65 99 -145 51 -80 96 -145 99 -145 9 0 31 35 31
50 1 22 -112 176 -197 269 -238 263 -550 375 -820 295z"/>
<path d="M1191 3305 c-52 -79 -97 -142 -101 -140 -4 2 -40 54 -80 115 -40 60
-76 110 -80 110 -12 0 -116 -228 -163 -360 -77 -213 -130 -431 -163 -675 -24
-176 -24 -523 0 -689 18 -127 62 -310 93 -389 l19 -48 80 120 c43 66 82 121
85 121 3 0 46 -65 95 -146 104 -169 79 -171 200 20 43 69 82 125 85 126 4 0
49 -65 100 -144 52 -80 96 -145 99 -145 3 -1 47 64 98 144 52 80 96 145 98
145 2 0 45 -62 95 -137 50 -76 95 -142 99 -146 4 -5 50 57 101 137 52 80 96
146 99 146 3 0 48 -65 100 -145 52 -80 97 -144 100 -144 3 0 45 63 94 140 49
77 92 142 96 144 4 3 49 -59 100 -136 52 -77 97 -142 100 -144 4 -3 49 61 100
140 51 80 95 145 99 145 3 0 42 -55 85 -123 l79 -122 33 98 c68 204 96 394 96
662 -1 444 -100 889 -284 1277 l-51 108 -65 -97 c-35 -54 -68 -102 -72 -106
-4 -5 -47 57 -96 137 -49 80 -91 145 -94 146 -3 0 -47 -65 -99 -145 -51 -80
-95 -145 -98 -145 -2 0 -47 66 -100 147 -89 135 -97 145 -110 127 -8 -10 -51
-76 -96 -146 -45 -70 -84 -128 -87 -128 -3 0 -49 66 -102 147 l-97 146 -96
-147 c-54 -81 -101 -144 -105 -139 -4 4 -49 70 -99 146 -50 75 -93 137 -94
137 -2 0 -45 -65 -96 -145z m-206 -878 c135 -76 118 -268 -27 -312 -67 -20
-124 -6 -172 43 -85 84 -64 215 44 270 56 28 104 28 155 -1z m471 4 c108 -49
131 -187 45 -272 -100 -100 -261 -51 -287 89 -14 74 22 144 95 182 46 24 95
25 147 1z m461 8 c64 -24 113 -95 113 -164 0 -108 -107 -193 -210 -165 -80 21
-130 86 -130 167 0 118 119 203 227 162z m511 -22 c94 -61 99 -197 12 -271
-76 -64 -184 -51 -245 28 -65 86 -31 216 69 261 45 21 118 13 164 -18z m444
18 c103 -42 140 -174 73 -261 -78 -102 -232 -86 -292 29 -20 39 -20 115 0 153
40 78 138 114 219 79z"/>
<path d="M838 1084 c-16 -25 -28 -51 -28 -57 0 -25 117 -182 194 -261 168
-171 345 -268 601 -328 178 -42 460 -26 650 38 244 81 479 262 622 478 l52 79
-30 43 c-16 24 -34 46 -39 49 -6 3 -51 -56 -100 -132 -50 -76 -95 -139 -99
-141 -4 -1 -50 61 -101 138 -51 77 -96 140 -99 140 -3 0 -48 -63 -100 -140
-52 -77 -98 -140 -101 -140 -4 0 -49 63 -100 140 -51 77 -96 140 -99 140 -3 0
-48 -66 -100 -146 l-94 -145 -96 145 c-53 80 -99 144 -103 143 -4 -1 -50 -66
-101 -145 l-93 -142 -99 144 c-55 80 -103 145 -106 146 -3 0 -48 -63 -99 -140
-51 -77 -96 -140 -99 -140 -3 0 -48 63 -99 140 -50 77 -95 140 -100 140 -4 0
-19 -21 -34 -46z"/>
</g>
</svg>
