<svg id="Capa_1" data-name="Capa 1" xmlns="http://www.w3.org/2000/svg" viewBox="0 0 1015 1092"><defs><style>.cls-1{fill:none;stroke:#fff;stroke-width:134px;opacity:0.5;}.cls-1,.cls-2{stroke-miterlimit:10;}.cls-2{stroke:#000;}.cls-3{fill:#fff;}</style></defs><title>Rafaela</title><ellipse class="cls-1" cx="503.97" cy="545.64" rx="368.32" ry="368.52"/><path d="M461.18,232.71c3.95-1.18-6,5.51-19.54,7.33-11.79,1.59-28.3-4.6-33.86-9.49-12-10.48-11.82-26.18-11.82-26.18-1.45-24.17,22.6-15.27,22.6-15.27,1.84-10.33-11.94-12.21-11.94-12.21,8.74-10.25,1.94-18.95,1.94-18.95-10.32-1.84-20.83,11.84-20.83,11.84,1.84-10.33-5.06-10.41-5.06-10.41-24.47,29-5.9,63.75-5.9,63.75-11.83-20.83-13.36-38.1-13.36-38.1-3.29-13.83,9-37.84,9-37.84,15.84-27.42,32.75,2.1,32.75,2.1,12.19-10.21,5.45-24.09,5.45-24.09C421,127,420.77,146,420.77,146c22.7-23.89-1.37-31.07-1.37-31.07,13.84-3.29,18.8,15.74,18.8,15.74,15.73-18.79,2.08-31,2.08-31-5.1-7-18.94-3.67-18.94-3.67,5.22-3.39,3.45-11.82,3.45-11.82s-31.72-34.7-76.35,52.39c-20.77,40.52,2.6,74.19,2.6,74.19,46,50.55,99.6,39.09,99.6,39.09,48.42-11.52,54.09-54.58,54.09-54.58l2.08-126.83c-.27,24.14-9.17,31.06-9.17,31.06-17.5,22.23-6.13,35.25-6.13,35.25h.11c.18-15.52-10.11-20.81-10.11-20.81-20.6-8.86-27.67,6.58-27.67,6.58-3.65,17.21,11.91,13.94,11.91,13.94-5.07-8.69,3.55-8.59,3.55-8.59,15.52.18,13.44,31.2,13.44,31.2-23.83-27.87-49.93-7.47-49.93-7.47-19.17,17-7.26,31-7.26,31-1.7-1.75,3.51-5.14,3.51-5.14-.33,29.32,17,19.17,17,19.17-8.62-.1-6.76-12.15-6.76-12.15,3.35,8.66,6.8,8.7,6.8,8.7,6.86,3.53,10.41-5,10.41-5-10.39,3.33-8.55-7-8.55-7,.08-6.9,7-8.55,7-8.55,25.89-1.42,25.59,24.44,25.59,24.44-.25,22.42-19.22,22.21-19.22,22.21-17.25-.2-10.15-17.37-10.15-17.37-13.78-1.88-13.9,8.47-13.9,8.47-5.15-1.78-8.68,5.08-8.68,5.08-3.59,12,8.45,17.26,8.45,17.26A31.81,31.81,0,0,0,461.18,232.71Z"/><path d="M546.66,232.17c-3.91-1.31,5.85,5.71,19.29,8,11.73,2,28.43-3.68,34.16-8.38C612.4,221.68,612.78,206,612.78,206c2.24-24.1-22.09-16-22.09-16C589.19,179.6,603,178.17,603,178.17c-8.4-10.53-1.32-19-1.32-19,10.39-1.51,20.44,12.51,20.44,12.51-1.5-10.38,5.39-10.23,5.39-10.23,23.51,29.83,3.81,63.91,3.81,63.91C643.85,204.92,646,187.72,646,187.72c3.74-13.72-7.81-38.12-7.81-38.12-14.93-27.92-32.8,1-32.8,1-11.85-10.61-4.66-24.25-4.66-24.25-10.38,1.5-10.79,20.47-10.79,20.47-21.9-24.62,2.39-31,2.39-31C578.56,112.09,573,131,573,131c-15.11-19.3-1.06-31.08-1.06-31.08,5.32-6.78,19.05-3,19.05-3-5.1-3.56-3.06-11.92-3.06-11.92s32.84-33.65,74.59,54.86c19.42,41.18-5,74.07-5,74.07-47.63,49-100.82,35.79-100.82,35.79-48-13.1-52.27-56.32-52.27-56.32l2.08-126.83c-.52,24.14,8.14,31.34,8.14,31.34,16.77,22.79,5,35.43,5,35.43h-.12c.34-15.52,10.79-20.47,10.79-20.47,20.88-8.18,27.45,7.49,27.45,7.49,3.07,17.32-12.37,13.54-12.37,13.54,5.36-8.51-3.26-8.7-3.26-8.7-15.52-.33-14.47,30.74-14.47,30.74,24.74-27.07,50.16-5.82,50.16-5.82,18.6,17.65,6.23,31.18,6.23,31.18,1.76-1.68-3.34-5.24-3.34-5.24C580,205.28,563,194.57,563,194.57c8.62.18,7.16-11.93,7.16-11.93-3.63,8.55-7.08,8.48-7.08,8.48-7,3.3-10.24-5.4-10.24-5.4,10.27,3.67,8.77-6.71,8.77-6.71.15-6.9-6.71-8.77-6.71-8.77-25.83-2.28-26.38,23.59-26.38,23.59C528,216.24,547,216.65,547,216.65c17.25.37,10.72-17,10.72-17,13.83-1.43,13.61,8.91,13.61,8.91,5.21-1.61,8.51,5.36,8.51,5.36,3.19,12.15-9,17-9,17A31.78,31.78,0,0,1,546.66,232.17Z"/><path d="M461.88,855.31c3.95,1.18-6-5.51-19.54-7.33-11.78-1.59-28.29,4.61-33.86,9.49-12,10.49-11.82,26.18-11.82,26.18-1.45,24.17,22.6,15.27,22.6,15.27,1.84,10.33-11.93,12.21-11.93,12.21,8.74,10.25,1.94,19,1.94,19-10.33,1.84-20.84-11.84-20.84-11.84,1.85,10.33-5.05,10.41-5.05,10.41-24.48-29-5.9-63.75-5.9-63.75-11.84,20.83-13.37,38.1-13.37,38.1-3.29,13.83,9.06,37.84,9.06,37.84,15.83,27.42,32.75-2.1,32.75-2.1,12.19,10.21,5.45,24.09,5.45,24.09C421.69,961,421.48,942,421.48,942c22.69,23.88-1.37,31.06-1.37,31.06,13.83,3.29,18.79-15.74,18.79-15.74,15.74,18.79,2.08,31,2.08,31-5.1,7-18.93,3.67-18.93,3.67,5.21,3.39,3.45,11.82,3.45,11.82s-31.73,34.7-76.36-52.39c-20.77-40.52,2.61-74.19,2.61-74.19,46-50.55,99.59-39.09,99.59-39.09,48.43,11.53,54.09,54.58,54.09,54.58l2.09,126.83c-.28-24.14-9.17-31.06-9.17-31.06-17.51-22.22-6.14-35.24-6.14-35.24h.11c.18,15.52-10.11,20.81-10.11,20.81-20.59,8.86-27.67-6.58-27.67-6.58-3.65-17.21,11.92-13.93,11.92-13.93-5.08,8.68,3.54,8.58,3.54,8.58,15.52-.18,13.45-31.2,13.45-31.2-23.83,27.87-49.94,7.47-49.94,7.47-19.17-17-7.25-31-7.25-31-1.71,1.75,3.51,5.14,3.51,5.14-.34-29.32,17-19.17,17-19.17-8.63.1-6.76,12.15-6.76,12.15,3.35-8.66,6.8-8.7,6.8-8.7,6.85-3.53,10.4,5.06,10.4,5.06-10.38-3.34-8.54,7-8.54,7,.08,6.9,7,8.55,7,8.55,25.89,1.43,25.6-24.44,25.6-24.44-.26-22.42-19.23-22.21-19.23-22.21-17.24.2-10.15,17.37-10.15,17.37-13.78,1.88-13.89-8.47-13.89-8.47-5.16,1.79-8.69-5.07-8.69-5.07-3.58-12,8.45-17.27,8.45-17.27A31.83,31.83,0,0,1,461.88,855.31Z"/><path d="M547.36,855.85c-3.9,1.31,5.85-5.7,19.3-8,11.72-2,28.42,3.68,34.15,8.38C613.1,866.34,613.48,882,613.48,882c2.24,24.1-22.08,16-22.08,16-1.51,10.38,12.33,11.81,12.33,11.81-8.4,10.53-1.32,19-1.32,19,10.38,1.51,20.43-12.51,20.43-12.51-1.5,10.38,5.4,10.24,5.4,10.24,23.51-29.84,3.8-63.92,3.8-63.92,12.52,20.44,14.61,37.64,14.61,37.64,3.74,13.72-7.81,38.12-7.81,38.12-14.93,27.93-32.8-1-32.8-1-11.85,10.61-4.65,24.25-4.65,24.25-10.39-1.5-10.79-20.47-10.79-20.47-21.9,24.62,2.39,31,2.39,31-13.72,3.75-19.3-15.11-19.3-15.11-15.12,19.3-1.06,31.08-1.06,31.08,5.32,6.78,19,3,19,3-5.1,3.56-3.06,11.92-3.06,11.92s32.85,33.65,74.59-54.86c19.43-41.18-5-74.07-5-74.07-47.63-49-100.83-35.79-100.83-35.79-48,13.1-52.27,56.32-52.27,56.32l2.08,126.83c-.52-24.14,8.15-31.34,8.15-31.34,16.76-22.79,5-35.43,5-35.43h-.11c.33,15.52,10.79,20.47,10.79,20.47,20.87,8.18,27.44-7.49,27.44-7.49,3.08-17.32-12.37-13.54-12.37-13.54,5.36,8.52-3.26,8.7-3.26,8.7-15.52.33-14.46-30.74-14.46-30.74C553,959.24,578.45,938,578.45,938c18.6-17.65,6.23-31.18,6.23-31.18,1.77,1.68-3.33,5.24-3.33,5.24-.63-29.31-17.65-18.59-17.65-18.59,8.62-.19,7.15,11.92,7.15,11.92-3.63-8.55-7.08-8.47-7.08-8.47-7-3.31-10.23,5.39-10.23,5.39,10.27-3.67,8.76,6.71,8.76,6.71.15,6.9-6.71,8.77-6.71,8.77-25.83,2.28-26.38-23.58-26.38-23.58-.48-22.42,18.49-22.83,18.49-22.83,17.24-.37,10.71,17,10.71,17,13.83,1.43,13.61-8.91,13.61-8.91,5.21,1.61,8.51-5.36,8.51-5.36,3.19-12.15-9-17-9-17A31.83,31.83,0,0,0,547.36,855.85Z"/><path d="M500.93,502s-14.05-7.23-6.76-26.58c0,0-21.32,10.36-19.33-9.05,0,0,17.64,2,17.93-22.77,0,0-10.7,8.71-14.1-3.69,0,0,16-12.19,4.24-61.79,0,0-15.47-37.29-31.21-51.6,0,0,7.21-12.29,19.43.22,0,0,10.44,14.26,13.77,32,0,0-6.54-46-27.7-49.79,0,0-10.58-1.88-15.92,1.59,0,0-3.37-14.17,10.76-14,0,0,23-5,34.95,34,0,0-3.11-37.14-20.68-46.18,0,0-19.25-16.12-44.24,6.57,0,0-6.29-12.66,2.31-20.4,6.91-6.22,18.83-11.38,35.61-4.58,5,2.05,8.92,5.16,15.26,9.68,0,0,3.14,4.2,6.61,10,3.84,6.37,8.08,15.07,8.82,30.84,0,0,4.12-51.19-13.48-56.69,0,0,10.72-10.48,17.62,3.74,0,0-1.56-17.69,9.08-21.1l-.68,59.4s-21.73,46.35-.77,67.79c0,0-19.52,6.85-.69,60.07Z"/><path d="M506.56,502.15s14.05-7.23,6.76-26.58c0,0,21.32,10.36,19.34-9.05,0,0-17.65,2-17.93-22.77,0,0,10.7,8.71,14.09-3.69,0,0-16-12.19-4.24-61.79,0,0,15.48-37.29,31.22-51.6,0,0-7.21-12.29-19.44.22,0,0-10.44,14.26-13.77,32,0,0,6.55-46,27.7-49.79,0,0,10.58-1.88,15.92,1.59,0,0,3.38-14.17-10.76-14,0,0-23-5-35,34,0,0,3.11-37.14,20.68-46.18,0,0,19.25-16.12,44.25,6.57,0,0,6.29-12.66-2.32-20.4-6.91-6.22-18.83-11.38-35.6-4.58-5,2.05-8.93,5.16-15.26,9.68,0,0-3.15,4.2-6.62,10-3.84,6.37-8.07,15.07-8.82,30.84,0,0-4.12-51.19,13.49-56.69,0,0-10.72-10.48-17.63,3.74,0,0,1.57-17.69-9.07-21.1l.67,59.4s21.74,46.35.78,67.79c0,0,19.51,6.85.68,60.07Z"/><path d="M500.93,589.89s-14.05,7.23-6.76,26.58c0,0-21.32-10.36-19.33,9.06,0,0,17.64-2,17.93,22.76,0,0-10.7-8.71-14.1,3.7,0,0,16,12.18,4.24,61.79,0,0-15.47,37.28-31.21,51.59,0,0,7.21,12.29,19.43-.22,0,0,10.44-14.25,13.77-32,0,0-6.54,46-27.7,49.79,0,0-10.58,1.89-15.92-1.59,0,0-3.37,14.18,10.76,14,0,0,23,5,34.95-34,0,0-3.11,37.14-20.68,46.17,0,0-19.25,16.12-44.24-6.56,0,0-6.29,12.65,2.31,20.4,6.91,6.21,18.83,11.37,35.61,4.57,5-2,8.92-5.16,15.26-9.68,0,0,3.14-4.19,6.61-10,3.84-6.38,8.08-15.07,8.82-30.85,0,0,4.12,51.19-13.48,56.69,0,0,10.72,10.48,17.62-3.73,0,0-1.56,17.68,9.08,21.1l-.68-59.41s-21.73-46.35-.77-67.79c0,0-19.52-6.85-.69-60.07Z"/><path d="M506.56,589.76s14.05,7.23,6.76,26.58c0,0,21.32-10.36,19.34,9.06,0,0-17.65-2-17.93,22.76,0,0,10.7-8.71,14.09,3.7,0,0-16,12.18-4.24,61.79,0,0,15.48,37.28,31.22,51.59,0,0-7.21,12.29-19.44-.22,0,0-10.44-14.25-13.77-32,0,0,6.55,46,27.7,49.79,0,0,10.58,1.89,15.92-1.59,0,0,3.38,14.18-10.76,14,0,0-23,5-35-34,0,0,3.11,37.14,20.68,46.17,0,0,19.25,16.12,44.25-6.56,0,0,6.29,12.65-2.32,20.4-6.91,6.21-18.83,11.37-35.6,4.57-5-2-8.93-5.16-15.26-9.68,0,0-3.15-4.19-6.62-10-3.84-6.38-8.07-15.07-8.82-30.85,0,0-4.12,51.19,13.49,56.69,0,0-10.72,10.48-17.63-3.73,0,0,1.57,17.68-9.07,21.1l.67-59.41s21.74-46.35.78-67.79c0,0,19.51-6.85.68-60.07Z"/><path class="cls-2" d="M716.63,151.92s74.2.85,86.48,163.54c0,0,17.92,132.72-115.28,193,0,0-85.16,30.83-142.89-19.3,2.45,2.27,49.36,37.2,132.92,11.31,14-4.34,23.91-12.08,40.33-19.94,0,0,24.7-17.41,43-45C773,417.85,783.53,396,786.57,371.81,786.57,371.81,819.92,236.14,716.63,151.92Z"/><path d="M681.65,198.34s-13.77-32,28.61-29.71c0,0,42.34,5.79,67.91,87.35,0,0,23.66,93.92-14.22,162.39,0,0,27.45-82.73,6.87-137.73,0,0-29-88.68-73.43-68,0,0-10.42-16,9.07-21.1,0,0,26.64-12.06,56,50.11,0,0-24-60.35-54.1-58.92C708.33,182.75,692.45,180.8,681.65,198.34Z"/><path d="M730,449.79s14.52-17.55,9.6-51.17c0,0-6.59-26.76-49.24-32.49,0,0,3.79-22.92,21.32-10.35,0,0,1.86-8.82,12.38-1.63,0,0,12.47-8.69,19.3,12.59,0,0,8.61,16.16,8.4,33.83,0,0,5.87-49.41-20.49-62.08,0,0-7-3.61-8.87,3.43,0,0-15.84-5.48-5.1-17.72,0,0-14.23,8.67-17.71,3.33,0,0-1.46-26.52,23.11-12.1L721,308.34s14.22-6.91,33.19,34c0,0-15.26-56.72-33.09-42.78,0,0-1.62-12.39,10.68-6.95,0,0-5.21-7.13-17.66-.2,0,0-12.25-10.74,9-15.8,0,0-5.24-5.36-8.77-5.4,0,0,9.06-19.33,36.92,16.32,0,0-13.67-40.79-43.58-51.73,0,0-15.84-5.49-24.78,3.25,0,0,15.78,10.78-.22,19.43,0,0-19.47,3.31-15.68-19.61,0,0,3.76-19.4,33.77-17.29,0,0,28.25,2.09,49,43,0,0,36.42,60.48,9,145,0,0-13.23,75.82-105.28,90.68,0,0-54.9,11.74-114.57-24.28,0,0,67,9.6,40.9-22.5,0,0,.16-14.14,12.42-5.16,0,0,5.51-17.61,15.92-1.59,0,0,14.28-12.2,14,12.53,0,0,1.5,23-21.51,26.26,0,0,37,11,46.12-15.38,0,0,3.75-19.39-12.19-16,0,0-1.82,5.28,1.67,8.85,0,0-3.62,7-8.85,1.67,0,0-7-10.68,3.71-15.86l5.32-1.71S626,434.47,640.1,432.86c0,0,24.8-5,19.14,26.72,0,0,1.52,21.22-21.59,33.33,0,0,51.3-4.72,48.37-57.76,0,0-3.17-31.84-31.46-30.39,0,0-7.09,1.68-3.61,7,0,0-17.59-7.26,3.77-21.16,0,0,1.95-15.88,19.45-1.54l.06-5.3s12.43-5.16,22.73,21.46c0,0,15.56,30.22-7.89,72.35,0,0,32-20.83,18.43-66.93,0,0,9-10.5,12.28,7.21"/><path d="M826.43,224.81c4.44,1.77,8.82,6.56,11.36,17.68,0,0,3.41,19.77-12.92,46.26,0,0-9.66,39.65,8.54,49.43,0,0,14.9,8.16,32.91-13.39,0,0,19.72-11.66,34.66,3.09,0,0,8.17-11.59-5.05-16.46,0,0,11.56,1.58,18.07-11.66,0,0-8.32-13.14-21.48-6.47,0,0,8.16-14.89-3.42-19.77,0,0-19.74,8.37-19.65,23.21,0,0-3.35-8.23-8.28-4.9,0,0,5.08,21.41-16.35,23.19,0,0-9.93-4.89,1.58-11.55l9.88-3.36s1.54-18.15-16.54-6.5c0,0-1.69-6.59,11.48-11.61,0,0,14.84-.09,18.08-10,0,0-6.65-9.86-21.47-4.82,0,0,23-8.38,18-24.85,0,0-1.75-16.48-14.92-11.46,0,0,8.14-18.19-10-24.68,0,0-9.91-1.59-11.52,5,0,0-14.88-6.51-18.11,5.06,0,0-3.24,9.91,1.75,16.48C813,232.74,815.15,220.33,826.43,224.81Z"/><path d="M795.11,207.41S804.51,158,769,170C769,170,793.71,175.59,795.11,207.41Z"/><path d="M927.6,353.37s.25-21.73,12-10.73c0,0,9.36,13.69-5,24.39,0,0-.09,8.15-40.4-5.89,0,0-66.48-14.34-93.34,45.11,0,0,12.43-46,50.63-56.46,0,0,38.17-7.72,61.81,6.13C913.29,355.92,929.89,361.55,927.6,353.37Z"/><path d="M559.68,544.76s6.81-13.24,25.05-6.37c0,0-9.76-20.09,8.54-18.22,0,0-1.86,16.63,21.45,16.9,0,0-8.21-10.09,3.48-13.29,0,0,11.49,15.12,58.24,4,0,0,35.13-14.59,48.62-29.42,0,0,11.58,6.79-.21,18.31,0,0-13.43,9.84-30.12,13,0,0,43.36-6.16,46.92-26.1,0,0,1.78-10-1.49-15,0,0,13.36-3.18,13.2,10.14,0,0,4.75,21.7-32,32.94,0,0,35-2.93,43.52-19.48,0,0,15.19-18.15-6.19-41.7,0,0,11.92-5.93,19.23,2.18,5.85,6.51,10.72,17.75,4.3,33.55-1.92,4.76-4.86,8.41-9.11,14.39,0,0-4,3-9.4,6.23-6,3.62-14.2,7.61-29.07,8.31,0,0,48.25,3.88,53.43-12.71,0,0,9.88,10.1-3.52,16.61,0,0,16.67-1.47,19.89,8.56l-56-.64s-43.68-20.48-63.89-.73c0,0-6.45-18.39-56.61-.65Z"/><path d="M625,331.45s-21.07-11.87-32.47,1.17c0,0-13.16,10.24-1.88,18.82,0,0-19.86,2.7-15.76,21.68,0,0,3.89,9.3,10.39,7.18,0,0,2.33,16.17,13.93,12.79,0,0,10.19-2.49,13.16-10.23,0,0-11.76,4.73-13.91-7.29-.84-4.72.93-11,9.09-19.08,0,0,15.08-13.4,46.38-13.49,0,0,39-12.77,37.72-33.52,0,0-.93-17.05-28.9-21,0,0-20.43-10.67-15.74-31.26,0,0-14.25-.83-11.39,13.05,0,0-4.78-10.71-19.55-9.27,0,0-6.82,14.09,5.87,21.79,0,0-17.06.93-15.09,13.41,0,0,17.62,12.44,30.26,4.49,0,0-5.26,7.22.2,9.67,0,0,15.61-15.7,28.49,1.68,0,0,1.09,11.07-10.71,4.78L647,310.14s-16.33,8.31,3.22,17.57C650.22,327.71,637.74,334.54,625,331.45Z"/><path d="M690.48,157.14S702.69,93,656.61,108.55C656.61,108.55,688.66,115.8,690.48,157.14Z"/><path d="M817.33,504.48c1.18,3.95-5.51-6-7.33-19.54-1.59-11.79,4.61-28.3,9.49-33.87,10.49-11.95,26.19-11.81,26.19-11.81,24.16-1.45,15.26,22.6,15.26,22.6,10.33,1.84,12.21-11.94,12.21-11.94,10.25,8.74,19,1.94,19,1.94,1.84-10.33-11.83-20.83-11.83-20.83,10.32,1.84,10.4-5.06,10.4-5.06-29-24.48-63.75-5.9-63.75-5.9,20.83-11.83,38.1-13.36,38.1-13.36,13.84-3.29,37.84,9.05,37.84,9.05,27.42,15.84-2.1,32.75-2.1,32.75C911,460.7,924.85,454,924.85,454,923,464.29,904,464.07,904,464.07c23.89,22.7,31.06-1.37,31.06-1.37,3.29,13.84-15.74,18.8-15.74,18.8,18.8,15.73,31,2.07,31,2.07,7-5.09,3.66-18.93,3.66-18.93,3.39,5.22,11.82,3.45,11.82,3.45s34.7-31.72-52.38-76.35c-40.53-20.77-74.2,2.6-74.2,2.6-50.55,46-39.08,99.59-39.08,99.59,11.52,48.43,54.57,54.1,54.57,54.1l126.83-1.21c-24.14-.28-31.06-5.88-31.06-5.88-22.22-17.5-35.24-6.14-35.24-6.14v.12c15.52.18,20.82-10.11,20.82-10.11,8.86-20.6-6.59-27.67-6.59-27.67-17.2-3.65-13.93,11.91-13.93,11.91,8.68-5.08,8.58,3.55,8.58,3.55C924,528.12,893,526,893,526c27.87-23.83,7.47-49.93,7.47-49.93-17-19.17-31-7.26-31-7.26,1.74-1.7,5.13,3.51,5.13,3.51-29.32-.33-19.17,17-19.17,17,.1-8.62,12.15-6.76,12.15-6.76-8.66,3.35-8.7,6.8-8.7,6.8-3.53,6.86,5.06,10.41,5.06,10.41-3.33-10.39,7-8.55,7-8.55,6.9.08,8.55,7,8.55,7,1.43,25.89-24.44,25.59-24.44,25.59-22.42-.25-22.2-19.22-22.2-19.22.19-17.25,17.36-10.15,17.36-10.15,1.88-13.78-8.47-13.9-8.47-13.9,1.79-5.15-5.07-8.68-5.07-8.68-12-3.59-17.27,8.44-17.27,8.44A31.85,31.85,0,0,0,817.33,504.48Z"/><path d="M816.2,589.25c1.17-4-5.52,6-7.34,19.54-1.59,11.78,4.61,28.29,9.49,33.86,10.49,12,26.19,11.82,26.19,11.82,24.16,1.45,15.26-22.6,15.26-22.6C870.13,630,872,643.8,872,643.8c10.25-8.74,19-1.94,19-1.94,1.85,10.33-11.83,20.84-11.83,20.84,10.33-1.85,10.4,5,10.4,5-29,24.48-63.75,5.9-63.75,5.9,20.84,11.84,38.1,13.37,38.1,13.37,13.84,3.29,37.85-9.06,37.85-9.06,27.41-15.83-2.1-32.75-2.1-32.75,10.21-12.19,24.08-5.45,24.08-5.45-1.84-10.32-20.81-10.11-20.81-10.11C926.79,607,934,631,934,631c3.29-13.83-15.74-18.79-15.74-18.79,18.8-15.74,31-2.08,31-2.08,7,5.1,3.66,18.93,3.66,18.93,3.39-5.21,11.82-3.45,11.82-3.45s34.71,31.73-52.38,76.36c-40.52,20.77-74.2-2.6-74.2-2.6-50.55-46-39.08-99.6-39.08-99.6,11.52-48.43,54.58-54.09,54.58-54.09l126.82,1.2c-24.14.28-31.06,5.88-31.06,5.88-22.22,17.51-35.24,6.14-35.24,6.14v-.11c15.53-.18,20.82,10.11,20.82,10.11,8.86,20.59-6.59,27.67-6.59,27.67-17.2,3.65-13.93-11.92-13.93-11.92,8.68,5.08,8.58-3.54,8.58-3.54-.17-15.52-31.2-13.45-31.2-13.45,27.87,23.83,7.47,49.94,7.47,49.94-17,19.17-31,7.25-31,7.25,1.74,1.71,5.13-3.51,5.13-3.51-29.32.34-19.17-17-19.17-17,.1,8.63,12.16,6.77,12.16,6.77-8.67-3.36-8.71-6.8-8.71-6.8-3.52-6.86,5.06-10.41,5.06-10.41-3.33,10.39,7,8.54,7,8.54,6.89-.08,8.54-7,8.54-7,1.43-25.89-24.44-25.6-24.44-25.6-22.42.26-22.2,19.23-22.2,19.23.19,17.24,17.36,10.15,17.36,10.15,1.88,13.78-8.46,13.89-8.46,13.89,1.78,5.16-5.08,8.69-5.08,8.69-12,3.58-17.27-8.45-17.27-8.45A31.78,31.78,0,0,1,816.2,589.25Z"/><path class="cls-2" d="M715.47,941s74.2-.85,86.48-163.54c0,0,17.92-132.72-115.29-193,0,0-85.16-30.83-142.89,19.3,2.45-2.27,49.37-37.2,132.92-11.31,14,4.34,23.91,12.07,40.33,19.93,0,0,24.7,17.42,43,45,11.76,17.72,22.33,39.62,25.37,63.76C785.4,721.13,818.75,856.8,715.47,941Z"/><path d="M680.49,894.59s-13.78,32,28.6,29.71c0,0,42.34-5.78,67.91-87.35,0,0,23.67-93.91-14.22-162.39,0,0,27.45,82.73,6.88,137.74,0,0-29,88.68-73.44,68,0,0-10.41,16,9.08,21.1,0,0,26.64,12.06,56-50.11,0,0-24,60.35-54.1,58.92C707.17,910.19,691.29,912.14,680.49,894.59Z"/><path d="M728.86,643.15s14.51,17.54,9.59,51.17c0,0-6.58,26.75-49.24,32.48,0,0,3.8,22.93,21.32,10.36,0,0,1.87,8.81,12.39,1.63,0,0,12.46,8.69,19.29-12.59,0,0,8.61-16.16,8.41-33.83,0,0,5.86,49.41-20.49,62.08,0,0-7,3.61-8.88-3.44,0,0-15.84,5.48-5.1,17.73,0,0-14.23-8.67-17.7-3.33,0,0-1.47,26.52,23.1,12.1l-1.68,7.09s14.21,6.9,33.18-34c0,0-15.25,56.71-33.08,42.78,0,0-1.63,12.39,10.68,7,0,0-5.22,7.13-17.67.2,0,0-12.24,10.74,9,15.8,0,0-5.24,5.36-8.78,5.4,0,0,9.06,19.33,36.92-16.32,0,0-13.67,40.79-43.58,51.73,0,0-15.84,5.48-24.77-3.25,0,0,15.78-10.78-.22-19.43,0,0-19.48-3.31-15.68,19.61,0,0,3.75,19.4,33.77,17.29,0,0,28.24-2.09,49-43,0,0,36.41-60.49,8.94-145,0,0-13.23-75.83-105.27-90.68,0,0-54.91-11.74-114.57,24.28,0,0,67-9.6,40.89,22.5,0,0,.16,14.13,12.43,5.16,0,0,5.5,17.61,15.92,1.59,0,0,14.27,12.2,14-12.53,0,0,1.5-23-21.5-26.26,0,0,37-11,46.11,15.38,0,0,3.76,19.39-12.18,16,0,0-1.83-5.28,1.66-8.86,0,0-3.61-7-8.85-1.66,0,0-7,10.68,3.71,15.86l5.32,1.7s-10.45,12.49,3.7,14.1c0,0,24.79,5,19.13-26.73,0,0,1.52-21.21-21.58-33.32,0,0,51.29,4.72,48.36,57.76,0,0-3.17,31.83-31.46,30.39,0,0-7.08-1.69-3.61-7,0,0-17.59,7.27,3.78,21.16,0,0,1.94,15.88,19.45,1.55l.06,5.3s12.43,5.16,22.72-21.46c0,0,15.56-30.22-7.89-72.35,0,0,32,20.83,18.43,66.93,0,0,9,10.5,12.29-7.21"/><path d="M825.27,868.12c4.43-1.76,8.81-6.55,11.35-17.67,0,0,3.42-19.77-12.92-46.26,0,0-9.66-39.65,8.55-49.43,0,0,14.89-8.16,32.9,13.39,0,0,19.73,11.66,34.66-3.09,0,0,8.18,11.59-5,16.46,0,0,11.56-1.58,18.08,11.66,0,0-8.33,13.14-21.48,6.46,0,0,8.15,14.9-3.42,19.78,0,0-19.74-8.37-19.65-23.21,0,0-3.35,8.22-8.28,4.9,0,0,5.08-21.42-16.36-23.19,0,0-9.92,4.88,1.58,11.55l9.88,3.36s1.54,18.15-16.53,6.5c0,0-1.69,6.59,11.47,11.61,0,0,14.85.09,18.09,10,0,0-6.66,9.85-21.47,4.82,0,0,23,8.38,18,24.85,0,0-1.75,16.48-14.91,11.45,0,0,8.14,18.2-10,24.68,0,0-9.9,1.59-11.51-5,0,0-14.89,6.51-18.12-5.06,0,0-3.24-9.92,1.75-16.48C811.82,860.2,814,872.61,825.27,868.12Z"/><path d="M793.94,885.53s9.4,49.36-26.07,37.4C767.87,922.93,792.54,917.35,793.94,885.53Z"/><path d="M926.44,739.57s.25,21.73,12,10.73c0,0,9.37-13.69-5-24.39,0,0-.09-8.15-40.39,5.89,0,0-66.49,14.34-93.35-45.11,0,0,12.43,46,50.63,56.46,0,0,38.17,7.72,61.82-6.14C912.13,737,928.73,731.39,926.44,739.57Z"/><path d="M558.52,548.18s6.81,13.24,25.05,6.37c0,0-9.76,20.09,8.53,18.22,0,0-1.85-16.63,21.45-16.9,0,0-8.21,10.09,3.49,13.28,0,0,11.48-15.11,58.23-4,0,0,35.13,14.58,48.62,29.42,0,0,11.58-6.8-.2-18.32,0,0-13.44-9.83-30.12-13,0,0,43.36,6.16,46.92,26.1,0,0,1.78,10-1.5,15,0,0,13.36,3.17,13.21-10.15,0,0,4.75-21.7-32-32.93,0,0,35,2.93,43.52,19.48,0,0,15.19,18.15-6.18,41.7,0,0,11.92,5.93,19.22-2.18,5.86-6.51,10.72-17.75,4.31-33.55-1.93-4.76-4.86-8.42-9.12-14.39,0,0-3.95-3-9.39-6.23-6-3.62-14.2-7.61-29.07-8.31,0,0,48.24-3.89,53.43,12.71,0,0,9.87-10.11-3.52-16.61,0,0,16.66,1.47,19.88-8.56l-56,.64s-43.69,20.48-63.89.73c0,0-6.45,18.39-56.61.65Z"/><path d="M623.85,761.49s-21.07,11.87-32.46-1.17c0,0-13.16-10.24-1.89-18.82,0,0-19.86-2.7-15.76-21.68,0,0,3.89-9.31,10.39-7.18,0,0,2.34-16.17,13.93-12.8,0,0,10.19,2.49,13.16,10.24,0,0-11.75-4.73-13.9,7.28-.85,4.73.93,11,9.08,19.08,0,0,15.09,13.41,46.39,13.5,0,0,39,12.77,37.71,33.52,0,0-.93,17-28.9,21,0,0-20.43,10.67-15.74,31.25,0,0-14.24.84-11.39-13,0,0-4.78,10.71-19.54,9.26,0,0-6.82-14.08,5.86-21.79,0,0-17.06-.92-15.09-13.4,0,0,17.62-12.44,30.26-4.49,0,0-5.25-7.22.21-9.67,0,0,15.6,15.69,28.49-1.68,0,0,1.08-11.07-10.72-4.78l-8.1,6.66s-16.33-8.31,3.21-17.57C649.05,765.23,636.57,758.4,623.85,761.49Z"/><path d="M689.32,935.8s12.21,64.13-33.88,48.59C655.44,984.39,687.49,977.14,689.32,935.8Z"/><path class="cls-2" d="M293.06,151.17s-74.19.85-86.47,163.54c0,0-17.92,132.72,115.28,193,0,0,85.16,30.83,142.89-19.3-2.45,2.26-49.37,37.2-132.92,11.3-14-4.33-23.91-12.07-40.33-19.93,0,0-24.7-17.41-43-45-11.75-17.71-22.33-39.61-25.37-63.75C223.13,371.06,189.78,235.39,293.06,151.17Z"/><path d="M328.05,197.59s13.77-32-28.61-29.71c0,0-42.34,5.79-67.91,87.35,0,0-23.67,93.92,14.22,162.39,0,0-27.45-82.73-6.87-137.73,0,0,29-88.68,73.43-68,0,0,10.42-16-9.08-21.1,0,0-26.64-12.07-56,50.11,0,0,24-60.35,54.1-58.92C301.37,182,317.25,180.05,328.05,197.59Z"/><path d="M279.68,449s-14.52-17.55-9.6-51.17c0,0,6.59-26.76,49.24-32.49,0,0-3.79-22.92-21.32-10.35,0,0-1.87-8.82-12.38-1.63,0,0-12.47-8.69-19.3,12.59,0,0-8.61,16.16-8.41,33.82,0,0-5.86-49.4,20.5-62.07,0,0,7-3.61,8.87,3.43,0,0,15.84-5.48,5.1-17.72,0,0,14.23,8.67,17.71,3.33,0,0,1.46-26.52-23.11-12.11l1.69-7.08s-14.22-6.91-33.19,34c0,0,15.26-56.72,33.08-42.79,0,0,1.63-12.38-10.68-6.94,0,0,5.22-7.13,17.67-.2,0,0,12.25-10.74-9-15.8,0,0,5.24-5.36,8.77-5.4,0,0-9.06-19.33-36.92,16.32,0,0,13.67-40.79,43.58-51.74,0,0,15.84-5.48,24.77,3.26,0,0-15.77,10.78.23,19.43,0,0,19.47,3.31,15.67-19.62,0,0-3.75-19.39-33.76-17.28,0,0-28.25,2.09-49,43,0,0-36.42,60.49-8.95,145,0,0,13.23,75.82,105.28,90.67,0,0,54.9,11.75,114.57-24.27,0,0-67,9.6-40.9-22.5,0,0-.16-14.14-12.43-5.16,0,0-5.5-17.61-15.92-1.59,0,0-14.27-12.2-14,12.53,0,0-1.5,23,21.5,26.26,0,0-37,11-46.11-15.38,0,0-3.75-19.39,12.19-16,0,0,1.82,5.28-1.67,8.85,0,0,3.61,7,8.85,1.67,0,0,6.95-10.68-3.71-15.86l-5.32-1.71s10.46-12.48-3.7-14.09c0,0-24.79-5-19.13,26.72,0,0-1.52,21.22,21.59,33.33,0,0-51.3-4.72-48.37-57.76,0,0,3.17-31.84,31.46-30.39,0,0,7.09,1.68,3.61,7,0,0,17.59-7.27-3.77-21.16,0,0-2-15.88-19.46-1.54l-.06-5.3s-12.42-5.16-22.72,21.46c0,0-15.56,30.21,7.89,72.35,0,0-32-20.84-18.43-66.93,0,0-8.95-10.5-12.29,7.21"/><path d="M183.27,224.06c-4.44,1.77-8.82,6.56-11.36,17.68,0,0-3.42,19.77,12.92,46.26,0,0,9.66,39.64-8.54,49.43,0,0-14.9,8.16-32.91-13.39,0,0-19.72-11.67-34.66,3.09,0,0-8.18-11.59,5-16.46,0,0-11.56,1.58-18.07-11.66,0,0,8.32-13.14,21.48-6.47,0,0-8.16-14.89,3.41-19.77,0,0,19.75,8.37,19.66,23.21,0,0,3.35-8.23,8.27-4.9,0,0-5.07,21.41,16.36,23.19,0,0,9.93-4.89-1.58-11.55l-9.88-3.36s-1.54-18.16,16.54-6.5c0,0,1.69-6.59-11.48-11.62,0,0-14.84-.08-18.08-10,0,0,6.65-9.86,21.47-4.82,0,0-23-8.39-18-24.85,0,0,1.75-16.48,14.92-11.46,0,0-8.14-18.19,10-24.68,0,0,9.91-1.59,11.52,5,0,0,14.88-6.51,18.11,5.06,0,0,3.24,9.91-1.75,16.48C196.71,232,194.54,219.58,183.27,224.06Z"/><path d="M214.59,206.66s-9.4-49.37,26.08-37.4C240.67,169.26,216,174.84,214.59,206.66Z"/><path d="M82.09,352.62s-.24-21.73-12-10.73c0,0-9.36,13.69,5,24.39,0,0,.09,8.15,40.4-5.89,0,0,66.48-14.34,93.34,45.11,0,0-12.43-46-50.63-56.47,0,0-38.17-7.71-61.82,6.14C96.4,355.17,79.81,360.79,82.09,352.62Z"/><path d="M450,544s-6.82-13.24-25-6.37c0,0,9.76-20.1-8.54-18.22,0,0,1.86,16.63-21.45,16.89,0,0,8.21-10.08-3.48-13.28,0,0-11.49,15.12-58.24,4,0,0-35.13-14.59-48.62-29.42,0,0-11.58,6.79.21,18.31,0,0,13.43,9.84,30.12,13,0,0-43.37-6.16-46.92-26.11,0,0-1.78-10,1.49-15,0,0-13.36-3.18-13.21,10.14,0,0-4.74,21.7,32,32.94,0,0-35-2.93-43.52-19.49,0,0-15.19-18.14,6.19-41.69,0,0-11.93-5.93-19.23,2.18-5.86,6.51-10.72,17.74-4.31,33.55,1.93,4.76,4.87,8.41,9.12,14.38,0,0,4,3,9.39,6.24,6,3.61,14.21,7.61,29.08,8.31,0,0-48.25,3.88-53.43-12.71,0,0-9.88,10.1,3.52,16.61,0,0-16.67-1.47-19.89,8.55l56-.63s43.68-20.48,63.89-.73c0,0,6.45-18.39,56.6-.65Z"/><path d="M384.68,330.7s21.07-11.87,32.47,1.17c0,0,13.16,10.24,1.88,18.82,0,0,19.86,2.69,15.76,21.67,0,0-3.89,9.31-10.39,7.19,0,0-2.33,16.17-13.93,12.79,0,0-10.19-2.49-13.16-10.23,0,0,11.76,4.73,13.91-7.29.84-4.72-.93-11-9.09-19.08,0,0-15.08-13.4-46.38-13.49,0,0-39-12.77-37.72-33.52,0,0,.93-17.05,28.9-21,0,0,20.43-10.67,15.74-31.26,0,0,14.24-.84,11.39,13.05,0,0,4.78-10.71,19.55-9.27,0,0,6.82,14.09-5.87,21.79,0,0,17.06.93,15.09,13.41,0,0-17.62,12.43-30.26,4.49,0,0,5.26,7.22-.2,9.67,0,0-15.61-15.7-28.49,1.68,0,0-1.09,11.07,10.71,4.77l8.11-6.66S379,317.7,359.48,327C359.48,327,372,333.78,384.68,330.7Z"/><path d="M319.21,156.39s-12.2-64.14,33.88-48.6C353.09,107.79,321,115.05,319.21,156.39Z"/><path d="M193.35,503.75c-1.17,3.94,5.52-6,7.34-19.55,1.58-11.78-4.61-28.29-9.5-33.86C180.71,438.39,165,438.53,165,438.53c-24.16-1.45-15.26,22.59-15.26,22.59-10.33,1.84-12.22-11.93-12.22-11.93-10.24,8.74-19,1.94-19,1.94-1.84-10.33,11.84-20.83,11.84-20.83-10.33,1.84-10.41-5.06-10.41-5.06,29.05-24.48,63.76-5.9,63.76-5.9C162.93,407.5,145.67,406,145.67,406c-13.84-3.29-37.85,9.06-37.85,9.06-27.41,15.84,2.1,32.75,2.1,32.75-10.21,12.19-24.08,5.45-24.08,5.45,1.84,10.33,20.81,10.11,20.81,10.11C82.76,486,75.59,462,75.59,462c-3.3,13.83,15.73,18.79,15.73,18.79-18.79,15.74-31,2.08-31,2.08-7-5.09-3.66-18.93-3.66-18.93-3.4,5.21-11.82,3.45-11.82,3.45S10.11,435.63,97.2,391c40.52-20.76,74.2,2.61,74.2,2.61,50.54,46,39.08,99.59,39.08,99.59C199,541.63,155.9,547.29,155.9,547.29l-126.83-1.2c24.15-.28,31.06-5.88,31.06-5.88,22.23-17.51,35.25-6.14,35.25-6.14v.12c-15.52.17-20.81-10.12-20.81-10.12-8.86-20.59,6.58-27.67,6.58-27.67,17.21-3.64,13.94,11.92,13.94,11.92-8.68-5.08-8.59,3.54-8.59,3.54.18,15.53,31.21,13.45,31.21,13.45-27.87-23.83-7.47-49.94-7.47-49.94,17-19.17,31-7.25,31-7.25-1.74-1.71-5.13,3.51-5.13,3.51,29.31-.34,19.16,17,19.16,17-.09-8.63-12.15-6.76-12.15-6.76,8.67,3.35,8.7,6.8,8.7,6.8,3.53,6.86-5.05,10.4-5.05,10.4,3.33-10.38-7-8.54-7-8.54-6.9.08-8.54,7-8.54,7-1.43,25.88,24.44,25.59,24.44,25.59,22.42-.26,22.2-19.23,22.2-19.23-.2-17.24-17.36-10.15-17.36-10.15-1.89-13.78,8.46-13.89,8.46-13.89-1.78-5.16,5.08-8.69,5.08-8.69,12-3.58,17.26,8.45,17.26,8.45A31.79,31.79,0,0,1,193.35,503.75Z"/><path d="M194.49,588.51c-1.17-4,5.51,6,7.33,19.55,1.59,11.78-4.6,28.29-9.49,33.86-10.48,12-26.18,11.81-26.18,11.81-24.17,1.45-15.27-22.59-15.27-22.59-10.32-1.85-12.21,11.93-12.21,11.93-10.25-8.74-18.95-1.94-18.95-1.94C117.88,651.46,131.56,662,131.56,662c-10.33-1.84-10.41,5.06-10.41,5.06,29,24.48,63.75,5.9,63.75,5.9-20.83,11.84-38.1,13.36-38.1,13.36-13.83,3.3-37.84-9-37.84-9-27.42-15.84,2.1-32.75,2.1-32.75C100.85,632.29,87,639,87,639c1.85-10.33,20.82-10.11,20.82-10.11-23.89-22.7-31.07,1.37-31.07,1.37-3.29-13.84,15.74-18.79,15.74-18.79-18.79-15.74-31-2.08-31-2.08-7,5.09-3.67,18.93-3.67,18.93C54.38,623.14,46,624.9,46,624.9s-34.7,31.72,52.39,76.36c40.52,20.76,74.2-2.61,74.2-2.61,50.54-46,39.08-99.59,39.08-99.59C200.1,550.63,157,545,157,545L30.21,546.17c24.15.28,31.06,5.88,31.06,5.88,22.23,17.5,35.25,6.14,35.25,6.14v-.12C81,557.9,75.71,568.18,75.71,568.18c-8.86,20.6,6.58,27.68,6.58,27.68,17.21,3.64,13.94-11.92,13.94-11.92-8.69,5.08-8.59-3.55-8.59-3.55.18-15.52,31.2-13.44,31.2-13.44-27.87,23.83-7.47,49.94-7.47,49.94,17,19.16,31,7.25,31,7.25-1.75,1.7-5.14-3.51-5.14-3.51,29.32.34,19.17-17,19.17-17-.1,8.62-12.15,6.76-12.15,6.76,8.66-3.35,8.7-6.8,8.7-6.8,3.53-6.86-5-10.41-5-10.41,3.33,10.39-7,8.55-7,8.55-6.9-.08-8.54-7-8.54-7-1.43-25.89,24.44-25.59,24.44-25.59,22.42.25,22.2,19.23,22.2,19.23-.2,17.24-17.37,10.15-17.37,10.15-1.88,13.77,8.47,13.89,8.47,13.89-1.78,5.16,5.08,8.68,5.08,8.68,12,3.59,17.26-8.44,17.26-8.44A31.79,31.79,0,0,0,194.49,588.51Z"/><path class="cls-2" d="M294.23,940.27s-74.2-.85-86.48-163.54c0,0-17.92-132.72,115.28-193,0,0,85.17-30.83,142.9,19.3-2.45-2.27-49.37-37.2-132.92-11.31-14,4.34-23.91,12.07-40.33,19.93,0,0-24.7,17.41-43,45-11.76,17.72-22.33,39.61-25.37,63.76C224.3,720.38,191,856,294.23,940.27Z"/><path d="M329.21,893.84s13.77,32-28.6,29.71c0,0-42.34-5.78-67.92-87.35,0,0-23.66-93.91,14.22-162.39,0,0-27.44,82.73-6.87,137.74,0,0,29,88.67,73.44,68,0,0,10.41,16-9.08,21.1,0,0-26.64,12.06-56-50.11,0,0,24.05,60.34,54.1,58.92C302.53,909.44,318.41,911.39,329.21,893.84Z"/><path d="M280.84,642.4s-14.51,17.54-9.59,51.17c0,0,6.58,26.75,49.24,32.48,0,0-3.8,22.93-21.32,10.36,0,0-1.87,8.81-12.39,1.63,0,0-12.47,8.69-19.29-12.59,0,0-8.61-16.16-8.41-33.83,0,0-5.86,49.41,20.49,62.07,0,0,7,3.62,8.88-3.43,0,0,15.84,5.48,5.1,17.73,0,0,14.23-8.67,17.7-3.33,0,0,1.47,26.52-23.11,12.1l1.69,7.09s-14.21,6.9-33.18-34c0,0,15.25,56.71,33.08,42.78,0,0,1.63,12.39-10.68,7,0,0,5.22,7.12,17.67.2,0,0,12.24,10.74-9,15.8,0,0,5.24,5.36,8.77,5.4,0,0-9.05,19.33-36.91-16.32,0,0,13.67,40.79,43.58,51.73,0,0,15.84,5.48,24.77-3.25,0,0-15.78-10.78.22-19.43,0,0,19.48-3.31,15.68,19.61,0,0-3.75,19.39-33.77,17.28,0,0-28.24-2.08-49-43,0,0-36.41-60.49-8.95-145,0,0,13.24-75.83,105.28-90.68,0,0,54.91-11.74,114.57,24.28,0,0-67-9.6-40.89,22.5,0,0-.16,14.13-12.43,5.16,0,0-5.5,17.61-15.92,1.58,0,0-14.27,12.21-14-12.52,0,0-1.51-23,21.5-26.26,0,0-37-11-46.11,15.37,0,0-3.76,19.4,12.18,16.05,0,0,1.83-5.28-1.66-8.86,0,0,3.61-7,8.85-1.66,0,0,6.94,10.68-3.72,15.86l-5.32,1.7s10.46,12.49-3.69,14.09c0,0-24.79,5-19.13-26.72,0,0-1.53-21.22,21.58-33.32,0,0-51.29,4.71-48.36,57.75,0,0,3.17,31.84,31.45,30.4,0,0,7.09-1.69,3.62-7,0,0,17.58,7.27-3.78,21.16,0,0-1.94,15.88-19.45,1.55l-.06,5.3S324.2,713.57,313.91,687c0,0-15.56-30.22,7.89-72.36,0,0-32,20.84-18.43,66.93,0,0-9,10.5-12.29-7.2"/><path d="M184.43,867.37c-4.43-1.76-8.81-6.55-11.35-17.67,0,0-3.42-19.78,12.92-46.26,0,0,9.66-39.65-8.55-49.44,0,0-14.89-8.15-32.91,13.4,0,0-19.72,11.66-34.65-3.09,0,0-8.18,11.59,5,16.46,0,0-11.55-1.58-18.07,11.65,0,0,8.33,13.15,21.48,6.47,0,0-8.16,14.9,3.42,19.78,0,0,19.74-8.37,19.65-23.21,0,0,3.35,8.22,8.28,4.89,0,0-5.08-21.41,16.36-23.19,0,0,9.92,4.89-1.58,11.56l-9.88,3.36s-1.54,18.15,16.53,6.5c0,0,1.69,6.58-11.47,11.61,0,0-14.85.09-18.09,10,0,0,6.66,9.85,21.47,4.82,0,0-23,8.38-18,24.85,0,0,1.75,16.48,14.91,11.45,0,0-8.14,18.19,10.05,24.68,0,0,9.9,1.59,11.51-5,0,0,14.89,6.5,18.12-5.06,0,0,3.24-9.92-1.75-16.48C197.88,859.45,195.71,871.85,184.43,867.37Z"/><path d="M215.76,884.78s-9.4,49.36,26.07,37.4C241.83,922.18,217.16,916.6,215.76,884.78Z"/><path d="M83.26,738.82s-.25,21.72-12,10.73c0,0-9.37-13.69,5-24.4,0,0,.1-8.14,40.4,5.9,0,0,66.48,14.34,93.35-45.12,0,0-12.43,46-50.63,56.47,0,0-38.18,7.72-61.82-6.14C97.57,736.26,81,730.64,83.26,738.82Z"/><path d="M451.18,547.42s-6.81,13.25-25.05,6.38c0,0,9.76,20.09-8.53,18.22,0,0,1.85-16.63-21.46-16.9,0,0,8.22,10.09-3.48,13.28,0,0-11.48-15.11-58.23-4,0,0-35.14,14.58-48.63,29.42,0,0-11.57-6.8.21-18.32,0,0,13.44-9.84,30.12-13,0,0-43.36,6.17-46.92,26.11,0,0-1.78,10,1.5,15,0,0-13.36,3.18-13.21-10.14,0,0-4.75-21.7,32-32.93,0,0-35,2.93-43.51,19.48,0,0-15.2,18.14,6.18,41.7,0,0-11.92,5.93-19.22-2.18-5.86-6.51-10.72-17.75-4.31-33.56,1.93-4.75,4.86-8.41,9.12-14.38,0,0,3.95-3,9.39-6.23,6-3.62,14.2-7.61,29.07-8.32,0,0-48.24-3.88-53.43,12.72,0,0-9.87-10.11,3.52-16.62,0,0-16.67,1.48-19.88-8.55l56,.64s43.69,20.48,63.89.73c0,0,6.45,18.39,56.61.65Z"/><path d="M385.85,760.74s21.07,11.87,32.46-1.17c0,0,13.16-10.24,1.88-18.83,0,0,19.87-2.69,15.77-21.67,0,0-3.9-9.31-10.4-7.18,0,0-2.33-16.17-13.92-12.8,0,0-10.2,2.49-13.16,10.24,0,0,11.75-4.73,13.9,7.28.85,4.73-.93,11-9.08,19.08,0,0-15.09,13.41-46.39,13.5,0,0-39,12.77-37.71,33.51,0,0,.93,17.06,28.9,21,0,0,20.42,10.67,15.73,31.26,0,0,14.25.84,11.4-13,0,0,4.78,10.71,19.54,9.26,0,0,6.82-14.08-5.86-21.79,0,0,17-.92,15.08-13.4,0,0-17.62-12.44-30.25-4.49,0,0,5.25-7.23-.21-9.67,0,0-15.6,15.69-28.49-1.68,0,0-1.09-11.08,10.71-4.78l8.11,6.66s16.33-8.31-3.21-17.57C360.65,764.48,373.13,757.65,385.85,760.74Z"/><path d="M320.38,935.05s-12.21,64.13,33.88,48.59C354.26,983.64,322.2,976.39,320.38,935.05Z"/><circle class="cls-3" cx="504.32" cy="545.92" r="255.66"/><path d="M625.54,669.82c-5,0-9.31-.39-14.35-.78-28.32-1.94-43.45-9.31-60.51-33.36-14.36-19.78-28.32-44.22-40.73-64-7.76-12.42-12.81-14.74-32.59-14.74H463.78v60.9c0,33,4.27,34.91,35.3,38v10.86H395.51V655.85c32.2-3.49,34.91-5,34.91-38V463.06c0-33-4.26-34.13-34.91-37.63V414.57h98.92c28.32,0,47.32,3.49,62.07,13.19,15.9,10.09,26.37,27.54,26.37,51.21,0,33.36-21.33,54.3-50,66.72,7,12,23.67,38,35.3,55.47,14.35,20.56,21.72,30.25,30.65,40,10.47,11.25,19.39,15.52,28.31,17.85ZM482.4,543.75c20.18,0,33-3.11,42.67-11.25,15.13-11.25,21.34-26.77,21.34-47.72,0-41.5-27.54-56.63-57.41-56.63-11.25,0-17.85,1.55-20.56,3.88-3.49,2.71-4.66,6.59-4.66,16.68v95Z"/></svg>