<?xml version="1.0" standalone="no"?>
<!DOCTYPE svg PUBLIC "-//W3C//DTD SVG 20010904//EN"
 "http://www.w3.org/TR/2001/REC-SVG-20010904/DTD/svg10.dtd">
<svg version="1.0" xmlns="http://www.w3.org/2000/svg"
 width="437.000000pt" height="395.000000pt" viewBox="0 0 437.000000 395.000000"
 preserveAspectRatio="xMidYMid meet">
<metadata>
Created by potrace 1.16, written by Peter Selinger 2001-2019
</metadata>
<g transform="translate(0.000000,395.000000) scale(0.100000,-0.100000)"
fill="#000000" stroke="none">
<path d="M1855 3860 c-333 -54 -607 -156 -863 -323 -788 -513 -1053 -1461
-636 -2277 29 -58 72 -133 94 -166 l40 -61 -71 -174 c-40 -96 -91 -221 -114
-279 -23 -58 -68 -167 -99 -242 -31 -75 -56 -149 -56 -163 0 -39 53 -85 96
-85 19 0 218 71 475 170 l442 171 111 -55 c307 -152 637 -227 996 -227 302 0
554 46 812 147 533 210 944 630 1113 1137 57 170 76 282 82 477 8 264 -28 471
-122 702 -261 643 -863 1109 -1600 1239 -177 31 -533 35 -700 9z m600 -186
c641 -84 1207 -484 1470 -1037 106 -222 150 -427 149 -682 -1 -191 -19 -301
-79 -482 -140 -420 -489 -787 -934 -983 -534 -234 -1191 -207 -1730 71 -74 38
-144 69 -155 69 -12 0 -183 -63 -381 -139 -198 -76 -361 -138 -362 -137 -1 1
60 156 137 344 77 188 140 347 140 354 0 7 -8 25 -18 39 -93 140 -122 189
-168 284 -108 225 -154 427 -155 676 0 161 10 245 47 391 129 523 559 965
1119 1150 298 99 591 125 920 82z"/>
<path d="M1516 3129 c-103 -25 -267 -141 -358 -253 -99 -123 -128 -228 -109
-389 39 -318 227 -654 533 -953 121 -118 190 -174 338 -273 223 -149 491 -264
715 -307 51 -9 142 -17 210 -17 100 -1 131 3 185 22 106 37 198 97 291 190
106 107 154 194 152 277 -3 99 -32 135 -178 214 -44 23 -134 74 -200 111 -268
153 -332 149 -510 -37 l-100 -105 -45 16 c-196 69 -563 402 -635 577 l-15 37
38 30 c20 17 69 55 107 85 172 132 173 208 5 446 -37 52 -89 129 -115 170 -58
93 -80 117 -125 140 -44 22 -133 31 -184 19z m197 -347 c63 -92 122 -182 131
-200 22 -42 20 -44 -100 -133 -140 -104 -161 -135 -152 -229 10 -103 105 -247
273 -415 221 -221 474 -374 625 -378 76 -2 124 28 234 148 82 89 92 96 119 91
16 -3 95 -44 176 -90 80 -46 170 -95 199 -110 66 -34 67 -53 6 -135 -52 -70
-134 -138 -213 -177 -188 -95 -607 16 -967 255 -305 203 -533 452 -678 743
-83 167 -110 261 -110 398 -1 90 2 112 22 152 44 89 235 248 298 248 18 0 46
-34 137 -168z"/>
</g>
</svg>
