<?xml version="1.0" standalone="no"?>
<!DOCTYPE svg PUBLIC "-//W3C//DTD SVG 20010904//EN"
 "http://www.w3.org/TR/2001/REC-SVG-20010904/DTD/svg10.dtd">
<svg version="1.0" xmlns="http://www.w3.org/2000/svg"
 width="412.000000pt" height="409.000000pt" viewBox="0 0 412.000000 409.000000"
 preserveAspectRatio="xMidYMid meet">
<metadata>
Created by potrace 1.16, written by Peter Selinger 2001-2019
</metadata>
<g transform="translate(0.000000,409.000000) scale(0.100000,-0.100000)"
fill="#000000" stroke="none">
<path d="M925 4050 c-256 -28 -491 -159 -657 -369 -71 -88 -158 -264 -190
-381 l-23 -85 -3 -1100 c-3 -1175 -2 -1220 45 -1370 106 -337 358 -578 703
-674 l95 -26 1145 0 1145 0 99 27 c356 98 613 360 714 726 l27 97 0 1145 c0
909 -3 1157 -13 1205 -86 391 -355 680 -727 782 l-100 28 -1095 1 c-602 1
-1127 -2 -1165 -6z m2338 -173 c297 -93 492 -287 584 -582 l28 -90 0 -1155 0
-1155 -28 -90 c-93 -297 -312 -509 -607 -587 l-85 -23 -1115 0 -1115 0 -85 22
c-183 48 -358 164 -464 306 -67 89 -108 170 -143 284 l-28 88 0 1155 0 1155
28 90 c53 170 161 333 285 430 107 85 270 155 405 175 29 4 547 7 1152 6
l1100 -1 88 -28z"/>
<path d="M3029 3601 c-64 -25 -113 -64 -147 -119 -40 -63 -54 -111 -54 -183 0
-221 222 -376 427 -298 80 30 154 104 184 184 31 81 26 187 -12 261 -33 64
-113 137 -174 158 -62 21 -166 20 -224 -3z m210 -158 c48 -36 71 -81 71 -140
0 -65 -18 -103 -67 -140 -31 -24 -46 -28 -99 -28 -70 0 -102 17 -141 75 -84
122 23 285 171 259 21 -4 50 -16 65 -26z"/>
<path d="M1925 2984 c-88 -14 -204 -48 -269 -78 -256 -118 -446 -347 -520
-626 -24 -89 -32 -280 -16 -377 59 -370 337 -676 695 -765 130 -32 335 -32
455 0 304 82 546 307 647 602 72 211 72 403 1 619 -58 174 -166 323 -316 436
-168 126 -329 184 -527 190 -66 2 -133 1 -150 -1z m326 -174 c345 -102 569
-401 569 -758 0 -135 -21 -224 -80 -347 -84 -173 -195 -285 -365 -366 -123
-59 -190 -74 -340 -74 -108 0 -143 4 -205 24 -351 109 -570 402 -570 764 0
451 358 799 806 783 75 -3 135 -11 185 -26z"/>
</g>
</svg>
